<?xml version="1.0" encoding="UTF-8"?>
<svg version="1.1" viewBox="0 0 400 92.527" xmlns="http://www.w3.org/2000/svg">
<g fill-rule="evenodd">
<path d="m0.833 0.141c0 0.235-0.609 0.861-0.725 0.745-0.059-0.06-0.108 18.38-0.108 40.976v41.084l0.417 0.19c0.229 0.105 0.416 0.267 0.416 0.36 0 0.115 3.849 0.17 11.709 0.168l11.708-3e-3 0.392-0.414c0.216-0.227 0.46-0.414 0.542-0.414 0.088 0 0.149-16.964 0.149-40.953v-40.953l-0.541-0.463-0.542-0.463-11.708-1e-3c-6.44 0-11.709 0.064-11.709 0.141m58.258 0.167c-0.053 0.169-0.283 0.393-0.511 0.496l-0.413 0.189v40.837c0 36.188 0.028 40.837 0.25 40.837 0.137 0 0.25 0.112 0.25 0.25 0 0.137 0.112 0.25 0.25 0.25 0.137 0 0.25 0.112 0.25 0.25 0 0.22 1.426 0.25 11.833 0.25 9.42 0 11.833-0.043 11.833-0.211 0-0.116 0.169-0.284 0.375-0.375 0.26-0.114 0.392-0.334 0.428-0.716 0.029-0.303 0.161-0.592 0.292-0.642 0.37-0.143 0.359-79.521-0.011-79.663-0.142-0.054-0.25-0.302-0.25-0.572 0-0.303-0.18-0.66-0.495-0.982l-0.494-0.506h-11.744c-11.277 0-11.749 0.012-11.843 0.308m-30.346 12.442c0 5.408 0.021 7.597 0.047 4.863 0.025-2.734 0.025-7.159 0-9.833-0.026-2.675-0.047-0.438-0.047 4.97m229.21-8.966c-0.131 0.131-0.889 0.21-2.163 0.227-1.432 0.02-1.993 0.086-2.084 0.248-0.076 0.135-0.495 0.236-1.084 0.259-0.552 0.023-1.039 0.134-1.145 0.261-0.101 0.121-0.287 0.221-0.413 0.221s-0.23 0.112-0.23 0.25c0 0.185-0.194 0.25-0.75 0.25-0.555 0-0.75 0.065-0.75 0.25 0 0.181-0.185 0.25-0.666 0.25-0.482 0-0.667 0.069-0.667 0.25 0 0.138-0.146 0.25-0.325 0.25-0.178 0-0.529 0.189-0.778 0.421-0.25 0.231-0.629 0.464-0.842 0.518-0.214 0.053-0.388 0.164-0.388 0.246 0 0.081-0.113 0.148-0.25 0.148-0.138 0-0.25 0.113-0.25 0.25 0 0.138-0.113 0.25-0.25 0.25-0.138 0-0.25 0.113-0.25 0.25 0 0.138-0.113 0.25-0.25 0.25-0.138 0-0.25 0.113-0.25 0.25 0 0.167-0.167 0.25-0.5 0.25-0.334 0-0.5 0.084-0.5 0.25 0 0.138-0.075 0.25-0.167 0.25s-0.167 0.075-0.167 0.167-0.15 0.317-0.333 0.5-0.333 0.282-0.333 0.219c0-0.277-0.908 0.869-1.276 1.611-0.067 0.135-0.333 0.423-0.591 0.64-0.257 0.217-0.432 0.451-0.389 0.521s-0.144 0.377-0.416 0.681c-0.272 0.305-0.495 0.694-0.495 0.863 0 0.17-0.113 0.352-0.25 0.405-0.138 0.052-0.25 0.267-0.25 0.477 0 0.209-0.113 0.424-0.25 0.477-0.165 0.063-0.25 0.324-0.25 0.767 0 0.487-0.069 0.672-0.25 0.672-0.191 0-0.25 0.211-0.25 0.899 0 0.645-0.071 0.926-0.25 0.995-0.138 0.053-0.25 0.239-0.25 0.414s-0.105 0.405-0.232 0.511c-0.169 0.14-0.239 0.678-0.255 1.979-0.013 0.982-0.096 1.811-0.185 1.841-0.211 0.073-0.211 2.15 0 2.222 0.09 0.031 0.171 0.919 0.184 2.006 0.015 1.361 0.09 2.04 0.25 2.25 0.125 0.165 0.23 0.434 0.233 0.597s0.117 0.34 0.255 0.393c0.179 0.069 0.25 0.349 0.25 0.994 0 0.688 0.059 0.899 0.25 0.899 0.181 0 0.25 0.186 0.25 0.672 0 0.444 0.085 0.705 0.25 0.768 0.137 0.053 0.25 0.242 0.25 0.419 0 0.178 0.188 0.498 0.417 0.71s0.416 0.53 0.416 0.705 0.15 0.447 0.334 0.604c0.183 0.157 0.333 0.387 0.333 0.511 0 0.123 0.188 0.31 0.417 0.414 0.229 0.105 0.416 0.297 0.416 0.428 0 0.32 1.003 1.436 1.291 1.436 0.126 0 0.182 0.076 0.125 0.168s0.014 0.213 0.157 0.268 0.261 0.167 0.261 0.248c0 0.203 0.626 0.816 0.833 0.816 0.092 0 0.167 0.112 0.167 0.25 0 0.137 0.112 0.25 0.25 0.25 0.137 0 0.25 0.075 0.25 0.167 0 0.091 0.112 0.166 0.25 0.166 0.137 0 0.25 0.104 0.25 0.231s0.131 0.279 0.291 0.337c0.567 0.208 1.209 0.619 1.209 0.775 0 0.086 0.187 0.157 0.416 0.157 0.26 0 0.417 0.095 0.417 0.25 0 0.138 0.104 0.25 0.232 0.25s0.276 0.113 0.328 0.25c0.053 0.138 0.254 0.25 0.447 0.25 0.192 0 0.463 0.113 0.6 0.25 0.138 0.138 0.47 0.25 0.738 0.25 0.269 0 0.488 0.075 0.488 0.167s0.104 0.167 0.23 0.167 0.323 0.112 0.437 0.25c0.127 0.153 0.492 0.25 0.942 0.25 0.5 0 0.766 0.08 0.831 0.25 0.072 0.188 0.377 0.25 1.245 0.25 0.91 0 1.149 0.052 1.149 0.25 0 0.216 0.629 0.25 4.666 0.25s4.667-0.034 4.667-0.25c0-0.199 0.241-0.25 1.167-0.25s1.166-0.052 1.166-0.25c0-0.185 0.193-0.25 0.738-0.25 0.406 0 0.841-0.094 0.965-0.209 0.376-0.345 0.941-0.625 1.263-0.625 0.167 0 0.45-0.11 0.627-0.244 0.178-0.135 0.453-0.247 0.61-0.25s0.516-0.231 0.797-0.506c0.282-0.275 0.624-0.5 0.761-0.5 0.138 0 0.293-0.112 0.346-0.25 0.052-0.137 0.2-0.25 0.328-0.25s0.232-0.112 0.232-0.25c0-0.156 0.158-0.25 0.422-0.25 0.232 0 0.465-0.112 0.518-0.25 0.052-0.137 0.169-0.25 0.258-0.25 0.221 0 1.635-1.429 1.635-1.653 0-0.099 0.113-0.18 0.25-0.18 0.138 0 0.25-0.113 0.25-0.25 0-0.138 0.113-0.25 0.25-0.25 0.138 0 0.25-0.113 0.25-0.25 0-0.138 0.113-0.25 0.25-0.25 0.138 0 0.25-0.104 0.25-0.232s0.113-0.276 0.25-0.328c0.138-0.053 0.25-0.207 0.25-0.343s0.174-0.434 0.385-0.662c0.212-0.229 0.531-0.719 0.709-1.09s0.417-0.675 0.531-0.676c0.115-1e-3 0.209-0.192 0.209-0.424s0.112-0.465 0.25-0.518c0.163-0.063 0.25-0.322 0.25-0.745 0-0.406 0.078-0.65 0.208-0.653 0.302-6e-3 0.792-1.082 0.792-1.739 0-0.309 0.093-0.593 0.208-0.632 0.141-0.047 0.227-0.576 0.268-1.639 0.035-0.935 0.136-1.617 0.25-1.688 0.271-0.17 0.264-5.658-8e-3 -5.986-0.109-0.131-0.215-0.744-0.235-1.363-0.02-0.618-0.134-1.253-0.254-1.411s-0.221-0.528-0.224-0.822c-6e-3 -0.639-0.503-1.706-0.797-1.712-0.13-2e-3 -0.208-0.247-0.208-0.653 0-0.422-0.087-0.682-0.25-0.744-0.138-0.053-0.25-0.286-0.25-0.518 0-0.264-0.094-0.422-0.25-0.422-0.138 0-0.25-0.106-0.25-0.236s-0.076-0.261-0.169-0.292c-0.092-0.031-0.204-0.243-0.248-0.472s-0.156-0.441-0.248-0.472c-0.093-0.031-0.169-0.202-0.169-0.38 0-0.179-0.112-0.368-0.25-0.421-0.137-0.053-0.25-0.2-0.25-0.328s-0.112-0.232-0.25-0.232c-0.137 0-0.25-0.113-0.25-0.25 0-0.138-0.112-0.25-0.25-0.25-0.137 0-0.25-0.113-0.25-0.25 0-0.138-0.112-0.25-0.25-0.25-0.137 0-0.25-0.081-0.25-0.18 0-0.232-1.019-1.25-1.197-1.195-0.075 0.023-0.136-0.071-0.136-0.209 0-0.137-0.113-0.25-0.25-0.25-0.138 0-0.25-0.112-0.25-0.25 0-0.137-0.113-0.25-0.25-0.25-0.138 0-0.25-0.112-0.25-0.25 0-0.137-0.113-0.25-0.25-0.25-0.138 0-0.25-0.112-0.25-0.25 0-0.156-0.158-0.25-0.422-0.25-0.232 0-0.465-0.112-0.518-0.25-0.052-0.137-0.275-0.25-0.494-0.25-0.229 0-0.399-0.098-0.399-0.231 0-0.271-1.095-0.833-1.336-0.684-0.09 0.056-0.164-0.015-0.164-0.158 0-0.167-0.151-0.26-0.422-0.26-0.232 0-0.465-0.112-0.518-0.25-0.063-0.163-0.322-0.25-0.745-0.25-0.465 0-0.649-0.071-0.649-0.25 0-0.138-0.08-0.25-0.178-0.25s-0.291-0.113-0.429-0.25c-0.165-0.165-0.58-0.25-1.22-0.25-0.674 0-0.997-0.071-1.059-0.232-0.069-0.178-0.561-0.237-2.138-0.258-1.25-0.016-2.092-0.096-2.16-0.205-0.156-0.253-2.445-0.271-2.697-0.021m-151.62 1.049c-0.384 0.385-0.541 40.801-0.16 41.511 0.165 0.309 0.405 0.323 5.647 0.323h5.474l0.101-0.375c0.055-0.207 0.101-4.032 0.103-8.5l2e-3 -8.125h7.583 7.584v8.224c0 7.756 0.017 8.24 0.304 8.5 0.45 0.407 10.861 0.42 11.267 0.014 0.235-0.235 0.262-2.344 0.262-20.721v-20.459l-0.39-0.367c-0.599-0.562-10.467-0.55-11.067 0.013l-0.376 0.354v7.221 7.221h-7.579-7.578l-0.047-7.423c-0.04-6.382-0.081-7.445-0.296-7.581-0.562-0.355-10.464-0.199-10.834 0.17m45.198 0.05-0.364 0.388v12.094c0 10.547 0.032 12.121 0.25 12.302 0.194 0.161 0.25 0.61 0.25 2s0.056 1.839 0.25 2c0.137 0.114 0.25 0.381 0.25 0.594 0 0.212 0.075 0.432 0.166 0.489 0.092 0.057 0.167 0.336 0.167 0.622 0 0.285 0.11 0.64 0.245 0.789 0.134 0.149 0.263 0.519 0.287 0.824 0.023 0.305 0.138 0.591 0.255 0.636s0.213 0.287 0.213 0.538c0 0.457 0.439 1.008 0.805 1.008 0.107 0 0.195 0.187 0.195 0.416 0 0.26 0.094 0.417 0.25 0.417 0.167 0 0.25 0.167 0.25 0.5s0.083 0.5 0.25 0.5c0.137 0 0.25 0.081 0.25 0.18 0 0.235 1.919 2.153 2.153 2.153 0.099 0 0.18 0.113 0.18 0.25 0 0.138 0.105 0.25 0.233 0.25 0.127 0 0.275 0.113 0.328 0.25 0.052 0.138 0.285 0.25 0.517 0.25s0.405 0.057 0.384 0.125c-0.071 0.23 0.608 0.875 0.921 0.875 0.169 0 0.42 0.113 0.558 0.25 0.137 0.138 0.39 0.25 0.561 0.25 0.172 0 0.358 0.075 0.415 0.167s0.241 0.167 0.409 0.167 0.349 0.112 0.401 0.25c0.064 0.165 0.325 0.25 0.768 0.25 0.486 0 0.672 0.069 0.672 0.25 0 0.198 0.239 0.25 1.149 0.25 0.867 0 1.172 0.061 1.245 0.25 0.144 0.376 9.568 0.376 9.712 0 0.073-0.189 0.378-0.25 1.25-0.25s1.178-0.061 1.25-0.25c0.063-0.163 0.322-0.25 0.745-0.25 0.466 0 0.649-0.071 0.649-0.25 0-0.138 0.112-0.25 0.25-0.25 0.137 0 0.25-0.075 0.25-0.167s0.22-0.167 0.488-0.167c0.269 0 0.601-0.112 0.738-0.25 0.138-0.137 0.413-0.25 0.611-0.25 0.22 0 0.395-0.129 0.448-0.331 0.047-0.182 0.153-0.29 0.235-0.24 0.082 0.051 0.194-0.025 0.249-0.168s0.204-0.261 0.332-0.261 0.232-0.112 0.232-0.25c0-0.142 0.15-0.25 0.349-0.25 0.413 0 2.485-2.005 2.485-2.404 0-0.148 0.189-0.356 0.42-0.461 0.232-0.106 0.463-0.361 0.515-0.568s0.2-0.416 0.33-0.466c0.129-0.05 0.235-0.235 0.235-0.411s0.112-0.364 0.25-0.417c0.137-0.052 0.25-0.285 0.25-0.517s0.075-0.422 0.166-0.422c0.092 0 0.167-0.113 0.167-0.25 0-0.138 0.112-0.25 0.25-0.25 0.192 0 0.25-0.213 0.25-0.917s0.058-0.917 0.25-0.917c0.194 0 0.25-0.222 0.25-1 0-0.695 0.064-1 0.211-1 0.763 0 0.789-0.492 0.789-14.972v-13.636l-0.38-0.357c-0.499-0.469-9.877-0.565-10.574-0.109l-0.379 0.249v12.642c0 11.034-0.032 12.669-0.25 12.85-0.165 0.136-0.25 0.508-0.25 1.086 0 0.627-0.072 0.906-0.25 0.974-0.165 0.064-0.25 0.325-0.25 0.768 0 0.486-0.069 0.672-0.25 0.672-0.138 0-0.25 0.083-0.25 0.184 0 0.102-0.188 0.332-0.417 0.512-0.229 0.181-0.417 0.435-0.417 0.566s-0.093 0.219-0.208 0.196c-0.117-0.023-0.231 0.159-0.261 0.417-0.044 0.384-0.132 0.458-0.542 0.458-0.323 0-0.489 0.085-0.489 0.25 0 0.167-0.166 0.25-0.5 0.25-0.314 0-0.5 0.086-0.5 0.231 0 0.364-6.188 0.39-6.551 0.028-0.142-0.142-0.526-0.259-0.853-0.259-0.418 0-0.596-0.074-0.596-0.25 0-0.137-0.112-0.25-0.25-0.25-0.137 0-0.25-0.112-0.25-0.25 0-0.137-0.072-0.25-0.161-0.25-0.325 0-1.576-1.434-1.78-2.041-0.053-0.161-0.164-0.292-0.245-0.292s-0.147-0.244-0.148-0.542-0.113-0.756-0.25-1.019c-0.137-0.262-0.249-0.902-0.249-1.421 0-0.594-0.098-1.084-0.266-1.323-0.169-0.241-0.227-0.535-0.159-0.804 0.123-0.492-0.196-1.606-0.421-1.467-0.09 0.056-0.169-4.418-0.194-11.123l-0.043-11.218-10.521-0.088-0.365 0.388m47.054 0.079-0.418 0.451 3e-3 20.252 2e-3 20.252 0.396 0.375c0.393 0.372 0.43 0.375 5.628 0.375h5.232l0.286-0.484c0.412-0.698 0.442-14.8 0.031-14.958-0.56-0.215 0.321-0.548 1.463-0.553l1.125-5e-3v0.494c0 0.324 0.172 0.67 0.5 1.006 0.331 0.338 0.5 0.68 0.5 1.011 0 0.29 0.105 0.539 0.25 0.595 0.152 0.058 0.25 0.31 0.25 0.641 0 0.3 0.113 0.639 0.25 0.753 0.138 0.114 0.253 0.367 0.256 0.562 6e-3 0.412 0.363 0.938 0.638 0.938 0.104 0 0.19 0.219 0.19 0.488 0 0.268 0.112 0.6 0.25 0.738 0.137 0.137 0.25 0.434 0.25 0.658 0 0.225 0.112 0.502 0.25 0.616 0.137 0.114 0.25 0.348 0.25 0.52s0.112 0.313 0.25 0.313c0.137 0 0.25 0.112 0.25 0.25 0 0.137 0.112 0.25 0.25 0.25 0.173 0 0.25 0.174 0.25 0.57 0 0.442 0.15 0.722 0.666 1.244 0.367 0.37 0.667 0.751 0.667 0.846s0.112 0.173 0.25 0.173c0.137 0 0.25 0.113 0.25 0.25 0 0.138 0.112 0.25 0.25 0.25 0.137 0 0.25 0.113 0.25 0.25 0 0.138 0.112 0.25 0.25 0.25 0.137 0 0.25 0.113 0.25 0.25 0 0.138 0.104 0.25 0.232 0.25s0.276 0.113 0.328 0.25c0.053 0.138 0.241 0.25 0.417 0.25s0.364 0.113 0.417 0.25c0.052 0.138 0.285 0.25 0.517 0.25s0.422 0.075 0.422 0.167 0.105 0.167 0.233 0.167c0.127 0 0.275 0.112 0.328 0.25 0.067 0.175 0.34 0.25 0.916 0.25s0.85 0.074 0.917 0.25c0.081 0.211 0.658 0.25 3.768 0.25 3.153 0 3.672-0.036 3.672-0.25 0-0.19 0.21-0.252 0.875-0.256 1.613-0.01 1.625-0.041 1.625-4.126 0-4.214 0.279-3.849-2.941-3.843l-2.515 5e-3 -0.939-0.932c-0.516-0.512-1.014-0.932-1.105-0.932-0.092 0-0.167-0.112-0.167-0.25 0-0.137-0.113-0.25-0.25-0.25-0.167 0-0.25-0.166-0.25-0.5 0-0.275-0.075-0.5-0.167-0.5-0.091 0-0.166-0.14-0.166-0.313 0-0.172-0.113-0.406-0.25-0.52-0.138-0.114-0.253-0.33-0.256-0.479-7e-3 -0.327-0.559-1.021-0.813-1.021-0.1 0-0.181-0.297-0.181-0.667 0-0.481-0.07-0.666-0.25-0.666-0.157 0-0.25-0.158-0.25-0.422 0-0.232-0.113-0.465-0.25-0.518-0.138-0.053-0.25-0.2-0.25-0.328s-0.11-0.232-0.245-0.232c-0.149 0-0.207-0.098-0.149-0.25 0.059-0.155 0.313-0.25 0.667-0.25 0.353 0 0.607-0.095 0.666-0.25 0.053-0.138 0.201-0.25 0.328-0.25 0.128 0 0.233-0.113 0.233-0.25 0-0.139 0.148-0.25 0.333-0.25 0.325 0 1-0.538 1-0.796 0-0.071 0.337-0.278 0.748-0.459 0.482-0.211 0.749-0.434 0.75-0.626 1e-3 -0.163 0.114-0.34 0.252-0.392 0.137-0.053 0.25-0.161 0.25-0.239 0-0.079 0.23-0.379 0.511-0.666 0.288-0.294 0.471-0.628 0.42-0.763-0.051-0.131 0.019-0.281 0.155-0.333 0.136-0.053 0.247-0.277 0.247-0.499 0-0.223 0.113-0.448 0.25-0.5 0.138-0.053 0.25-0.229 0.25-0.391 0-0.163 0.113-0.389 0.25-0.503 0.142-0.117 0.25-0.48 0.25-0.835 0-0.345 0.112-0.842 0.249-1.104 0.358-0.686 0.359-4.596 1e-3 -4.954-0.161-0.161-0.25-0.574-0.25-1.167 0-0.592-0.088-1.005-0.25-1.166-0.137-0.138-0.25-0.331-0.25-0.429s-0.112-0.178-0.25-0.178c-0.185 0-0.25-0.195-0.25-0.75 0-0.556-0.064-0.75-0.25-0.75-0.137 0-0.25-0.113-0.25-0.25 0-0.138-0.063-0.25-0.14-0.25-0.076 0-0.283-0.299-0.458-0.665s-0.412-0.666-0.527-0.667c-0.114-1e-3 -0.208-0.114-0.208-0.252 0-0.137-0.113-0.25-0.25-0.25-0.138 0-0.25-0.112-0.25-0.25 0-0.137-0.113-0.25-0.25-0.25-0.138 0-0.25-0.112-0.25-0.25 0-0.137-0.104-0.25-0.232-0.25s-0.276-0.112-0.328-0.25c-0.053-0.137-0.241-0.25-0.417-0.25s-0.361-0.104-0.41-0.232-0.395-0.368-0.768-0.532c-0.373-0.165-0.678-0.36-0.678-0.434s-0.338-0.135-0.75-0.135c-0.556 0-0.75-0.065-0.75-0.25 0-0.198-0.241-0.25-1.167-0.25s-1.167-0.052-1.167-0.25c0-0.181-0.186-0.25-0.678-0.25-0.384 0-0.788-0.11-0.931-0.252-0.22-0.22-1.508-0.252-9.986-0.245l-9.734 7e-3 -0.419 0.452m88.7 1e-3 -0.444 0.464-6e-3 20.206c-5e-3 18.385 0.019 20.243 0.266 20.62l0.271 0.414h4.878 4.878l0.1-0.375c0.056-0.207 0.102-5.232 0.103-11.167 2e-3 -9.48 0.033-10.792 0.252-10.792 0.138 0 0.25 0.113 0.25 0.25 0 0.138 0.113 0.25 0.25 0.25 0.138 0 0.25 0.113 0.25 0.25 0 0.138 0.067 0.25 0.148 0.25s0.191 0.132 0.245 0.292c0.138 0.413 0.442 0.839 1.066 1.498 0.298 0.315 0.541 0.642 0.541 0.728s0.185 0.241 0.412 0.344c0.226 0.103 0.375 0.245 0.332 0.316-0.044 0.071 0.019 0.229 0.139 0.351 0.121 0.122 0.269 0.353 0.33 0.513s0.188 0.292 0.282 0.292c0.095 0 0.172 0.11 0.172 0.244s0.225 0.474 0.5 0.756c0.275 0.281 0.5 0.584 0.5 0.672 0 0.089 0.112 0.161 0.25 0.161 0.137 0 0.25 0.113 0.25 0.25s0.112 0.25 0.25 0.25c0.137 0 0.25 0.112 0.25 0.25 0 0.137 0.112 0.25 0.25 0.25 0.137 0 0.25 0.141 0.25 0.313s0.112 0.406 0.248 0.519c0.137 0.113 0.207 0.272 0.157 0.354-0.05 0.081 0.017 0.147 0.15 0.147s0.289 0.187 0.346 0.414c0.064 0.256 0.263 0.454 0.518 0.519 0.228 0.057 0.414 0.208 0.414 0.335 0 0.128 0.113 0.232 0.25 0.232 0.149 0 0.25 0.153 0.25 0.377 0 0.207 0.169 0.563 0.375 0.792 0.207 0.228 0.563 0.695 0.792 1.039 0.229 0.343 0.473 0.624 0.542 0.625 0.068 0 0.125 0.113 0.125 0.251 0 0.137 0.112 0.25 0.25 0.25 0.137 0 0.25 0.112 0.25 0.25 0 0.137 0.077 0.25 0.17 0.25 0.094 0 0.243 0.187 0.33 0.416s0.235 0.417 0.329 0.417 0.171 0.112 0.171 0.25c0 0.137 0.117 0.25 0.26 0.25 0.142 0 0.216 0.07 0.163 0.156-0.054 0.086-2e-3 0.218 0.115 0.292 0.116 0.074 0.293 0.285 0.392 0.469 0.099 0.183 0.343 0.407 0.542 0.498 0.215 0.098 0.361 0.316 0.361 0.541 0 0.211 0.102 0.377 0.232 0.377 0.127 0 0.279 0.187 0.336 0.414 0.065 0.259 0.263 0.454 0.526 0.52 0.232 0.059 0.385 0.143 0.34 0.188-0.152 0.152 0.502 1.173 1.244 1.941l0.739 0.765 4.008 3e-3c2.899 2e-3 4.064-0.053 4.208-0.197 0.253-0.253 0.289-41.235 0.037-41.634-0.259-0.411-9.327-0.466-9.625-0.059-0.166 0.228-0.212 2.732-0.212 11.675 0 10.008-0.03 11.384-0.25 11.384-0.151 0-0.25-0.154-0.25-0.39 0-0.246-0.34-0.747-0.916-1.352-0.505-0.529-0.917-1.103-0.917-1.276s-0.113-0.315-0.25-0.315c-0.138 0-0.25-0.113-0.25-0.25s-0.113-0.25-0.25-0.25c-0.138 0-0.25-0.113-0.25-0.25s-0.113-0.25-0.25-0.25c-0.138 0-0.25-0.113-0.25-0.25s-0.067-0.25-0.149-0.25c-0.081 0-0.195-0.187-0.253-0.417-0.057-0.229-0.178-0.416-0.268-0.416s-0.163-0.113-0.163-0.25c0-0.138-0.113-0.25-0.25-0.25-0.138 0-0.25-0.113-0.25-0.25 0-0.138-0.105-0.25-0.232-0.25-0.128 0-0.279-0.188-0.337-0.417-0.057-0.229-0.178-0.417-0.268-0.417s-0.163-0.093-0.164-0.208c0-0.115-0.289-0.481-0.643-0.814s-0.693-0.801-0.753-1.041-0.183-0.437-0.273-0.437-0.164-0.112-0.164-0.25c0-0.137-0.112-0.25-0.25-0.25-0.137 0-0.25-0.112-0.25-0.25 0-0.137-0.112-0.25-0.25-0.25-0.137 0-0.25-0.112-0.25-0.25 0-0.137-0.112-0.25-0.25-0.25-0.155 0-0.25-0.157-0.25-0.416 0-0.26-0.094-0.417-0.25-0.417-0.137 0-0.25-0.085-0.25-0.189s-0.187-0.363-0.416-0.576c-0.229-0.212-0.417-0.464-0.417-0.56s-0.113-0.175-0.25-0.175c-0.139 0-0.25-0.148-0.25-0.333 0-0.348-0.544-1-0.833-1-0.092 0-0.167-0.113-0.167-0.25 0-0.138-0.113-0.25-0.25-0.25-0.167 0-0.25-0.167-0.25-0.5 0-0.334-0.083-0.5-0.25-0.5-0.138 0-0.25-0.078-0.25-0.174 0-0.223-0.663-0.941-0.677-0.733-6e-3 0.086-0.08-0.017-0.165-0.229-0.086-0.212-0.231-0.339-0.323-0.282-0.097 0.06-0.168-0.08-0.168-0.328 0-0.237-0.113-0.475-0.25-0.527-0.138-0.053-0.25-0.201-0.25-0.328 0-0.128-0.113-0.233-0.25-0.233-0.138 0-0.25-0.112-0.25-0.25 0-0.137-0.113-0.25-0.25-0.25-0.138 0-0.25-0.112-0.25-0.25 0-0.137-0.07-0.25-0.156-0.25-0.085 0-0.208-0.168-0.273-0.375-0.065-0.206-0.295-0.54-0.511-0.742-0.217-0.202-0.394-0.445-0.394-0.541s-0.112-0.175-0.25-0.175c-0.137 0-0.25-0.082-0.25-0.182 0-0.693-0.618-0.807-4.427-0.812l-3.677-6e-3 -0.444 0.463m-71.618 8.287c0 0.189 0.203 0.25 0.831 0.25 0.909 0 2.502 1.261 2.502 1.98 0 0.175 0.112 0.361 0.25 0.414 0.204 0.078 0.25 0.481 0.25 2.184 0 1.745-0.041 2.089-0.25 2.089-0.167 0-0.25 0.166-0.25 0.5 0 0.333-0.083 0.5-0.25 0.5-0.138 0-0.25 0.112-0.25 0.25 0 0.137-0.113 0.25-0.25 0.25-0.138 0-0.231 0.09-0.208 0.2 0.023 0.111-0.071 0.208-0.209 0.216-0.137 9e-3 -0.231 0.106-0.208 0.216 0.026 0.127-0.189 0.206-0.583 0.214-0.885 0.018-1.277 0.109-1.345 0.311-0.038 0.114-1.062 0.176-2.919 0.176h-2.861l0.049-4.731c0.043-4.175 0.017-4.762-0.221-5-0.247-0.248-0.023-0.269 2.826-0.269 2.641 0 3.096 0.037 3.096 0.25m46.06 0c0.063 0.166 0.325 0.25 0.775 0.25 0.654 0 0.81 0.073 1.51 0.708 0.177 0.161 0.471 0.292 0.655 0.292 0.183 0 0.333 0.061 0.333 0.135 0 0.18 1.455 1.198 1.713 1.198 0.112 1e-3 0.215 0.189 0.228 0.42 0.014 0.25 0.299 0.686 0.708 1.083 0.376 0.365 0.684 0.814 0.684 0.997 0 0.185 0.111 0.334 0.25 0.334 0.181 0 0.25 0.185 0.25 0.672 0 0.443 0.085 0.704 0.25 0.767 0.176 0.068 0.25 0.341 0.25 0.917s0.075 0.849 0.25 0.917c0.212 0.081 0.25 0.671 0.25 3.893s-0.038 3.813-0.25 3.894c-0.175 0.067-0.25 0.341-0.25 0.917 0 0.575-0.074 0.849-0.25 0.916-0.165 0.064-0.25 0.325-0.25 0.768 0 0.486-0.069 0.672-0.25 0.672-0.137 0-0.25 0.115-0.25 0.255 0 0.141-0.112 0.299-0.25 0.351-0.137 0.053-0.25 0.28-0.25 0.505 0 0.247-0.07 0.365-0.178 0.299-0.097-0.061-0.218 0.046-0.268 0.238-0.051 0.192-0.158 0.307-0.239 0.257-0.082-0.05-0.148 0.026-0.148 0.168 0 0.143-0.113 0.26-0.25 0.26-0.138 0-0.25 0.113-0.25 0.25 0 0.138-0.113 0.25-0.25 0.25-0.138 0-0.25 0.113-0.25 0.25 0 0.138-0.113 0.25-0.25 0.25-0.138 0-0.25 0.108-0.25 0.239 0 0.137-0.196 0.262-0.458 0.292-0.258 0.03-0.44 0.144-0.417 0.261 0.026 0.13-0.147 0.208-0.458 0.208-0.275 0-0.5 0.075-0.5 0.167s-0.104 0.167-0.23 0.167-0.323 0.112-0.437 0.25c-0.152 0.183-0.555 0.25-1.509 0.25-0.934 0-1.371 0.07-1.551 0.25-0.321 0.321-1.007 0.321-1.273 0-0.155-0.186-0.567-0.25-1.612-0.25-1.284 0-1.437-0.036-1.79-0.417-0.213-0.229-0.549-0.417-0.748-0.417-0.198 0-0.404-0.112-0.457-0.25-0.052-0.137-0.267-0.25-0.477-0.25-0.209 0-0.424-0.112-0.477-0.25-0.052-0.137-0.28-0.25-0.506-0.25-0.298 0-0.425-0.102-0.463-0.373-0.03-0.211-0.253-0.469-0.512-0.593-0.252-0.12-0.458-0.337-0.458-0.482s-0.188-0.437-0.417-0.65c-0.229-0.212-0.417-0.542-0.417-0.732 0-0.191-0.112-0.39-0.25-0.443-0.137-0.052-0.25-0.266-0.25-0.474s-0.112-0.472-0.25-0.586c-0.137-0.114-0.25-0.34-0.25-0.503 0-0.162-0.112-0.338-0.25-0.391-0.187-0.071-0.25-0.37-0.25-1.184 0-0.857-0.053-1.089-0.25-1.089-0.213 0-0.25-0.454-0.25-3.088 0-2.592 0.041-3.104 0.25-3.185 0.18-0.069 0.25-0.35 0.25-1s0.071-0.931 0.25-1c0.138-0.052 0.253-0.219 0.256-0.369 3e-3 -0.151 0.115-0.42 0.25-0.598 0.134-0.178 0.244-0.451 0.244-0.607s0.113-0.327 0.25-0.38c0.138-0.052 0.25-0.204 0.25-0.337 0-0.282 0.526-1.327 0.709-1.408 0.068-0.03 0.125-0.162 0.125-0.292 0-0.129 0.112-0.236 0.25-0.236 0.137 0 0.25-0.104 0.25-0.232 0-0.127 0.182-0.277 0.405-0.333s0.453-0.252 0.511-0.435c0.059-0.183 0.242-0.333 0.408-0.333s0.395-0.113 0.509-0.25c0.114-0.138 0.386-0.25 0.604-0.25 0.241 0 0.396-0.098 0.396-0.25 0-0.138 0.104-0.25 0.232-0.25s0.276-0.113 0.328-0.25c0.068-0.176 0.343-0.25 0.935-0.25 0.634 0 0.838-0.061 0.838-0.25 0-0.211 0.378-0.25 2.399-0.25 1.979 0 2.416 0.044 2.495 0.25m-230.6 15.532c-0.16 0.041-0.292 0.145-0.292 0.23s-0.115 0.155-0.255 0.155-0.298 0.112-0.351 0.25c-0.053 0.137-0.2 0.25-0.328 0.25s-0.232 0.078-0.232 0.174-0.207 0.366-0.459 0.6l-0.458 0.424-0.044 10.859c-0.034 8.581 1e-3 10.895 0.167 11.031 0.116 0.095 0.371 0.47 0.567 0.833 0.232 0.432 0.493 0.682 0.75 0.72 0.216 0.031 0.453 0.163 0.527 0.291 0.073 0.129 0.312 0.234 0.531 0.234 0.22 0 0.445 0.075 0.502 0.167 0.121 0.197 20.582 0.238 20.585 0.042 1e-3 -0.069 0.338-0.273 0.75-0.454s0.748-0.425 0.748-0.542 0.101-0.213 0.225-0.213c0.785 0 0.775 0.155 0.775-11.945v-11.336l-0.38-0.443c-0.209-0.243-0.547-0.442-0.75-0.442-0.217 0-0.37-0.103-0.37-0.25 0-0.138-0.08-0.25-0.178-0.25s-0.291-0.113-0.429-0.25c-0.241-0.242-20.705-0.37-21.601-0.135m299.44 25.754c-0.112 0.181 0.302 0.159 0.604-0.031 0.193-0.122 0.162-0.151-0.138-0.128-0.212 0.016-0.422 0.088-0.466 0.159m-213.82 5.719c0.423 0.32 0.688 0.316 0.367-5e-3 -0.137-0.138-0.349-0.248-0.47-0.245-0.138 4e-3 -0.1 0.097 0.103 0.25m-5.404 9.003c-4e-3 4.842 0.029 8.765 0.075 8.72 0.109-0.109 0.126-17.33 0.017-17.439-0.046-0.046-0.087 3.878-0.092 8.719m-82.591 1.909c0 5.362 0.021 7.556 0.047 4.875 0.025-2.682 0.025-7.069 0-9.75-0.026-2.682-0.047-0.488-0.047 4.875m285.55-9.216c0.206 0.04 0.543 0.04 0.75 0 0.206-0.04 0.037-0.072-0.375-0.072-0.413 0-0.582 0.032-0.375 0.072m32.75-3e-3c0.16 0.042 0.423 0.042 0.583 0s0.029-0.076-0.292-0.076-0.452 0.034-0.291 0.076m51.916 0.503c0.207 0.04 0.544 0.04 0.75 0 0.207-0.04 0.038-0.072-0.375-0.072-0.412 0-0.581 0.032-0.375 0.072m-120.78 0.092c0.038 0.024 0.248 0.193 0.468 0.375l0.398 0.332-0.23-0.375c-0.127-0.206-0.337-0.375-0.468-0.375s-0.207 0.02-0.168 0.043m-16.563 0.957c0.048 0.183 0.203 0.333 0.344 0.333 0.216 0 0.208-0.053-0.045-0.333-0.166-0.183-0.321-0.333-0.344-0.333s-3e-3 0.15 0.045 0.333m-122.37 9.333c0 5.271 0.021 7.427 0.047 4.792 0.025-2.635 0.025-6.948 0-9.583-0.026-2.636-0.047-0.479-0.047 4.791m219.94-3.683c-0.126 0.08-0.195 0.247-0.153 0.372 0.053 0.158 0.137 0.113 0.276-0.147 0.222-0.415 0.21-0.436-0.123-0.225m13.021 0.933c2e-3 0.367 0.036 0.497 0.076 0.29 0.039-0.207 0.038-0.507-4e-3 -0.667-0.042-0.159-0.074 0.011-0.072 0.377m-13.322 3.25c0 0.596 0.03 0.84 0.067 0.542s0.037-0.785 0-1.083-0.067-0.055-0.067 0.541m-50.554 1.5c0 0.184 0.075 0.334 0.167 0.334s0.167-0.15 0.167-0.334c0-0.183-0.075-0.333-0.167-0.333s-0.167 0.15-0.167 0.333m-49.487 1.209c-7e-3 0.435 0.047 0.791 0.121 0.791 0.073 0 0.105-0.281 0.071-0.625-0.096-0.967-0.177-1.038-0.192-0.166m-43.513 4.088c0 0.195 0.801 0.224 0.919 0.034 0.058-0.094-0.117-0.164-0.409-0.164-0.28 0-0.51 0.059-0.51 0.13" fill="#5c6474"/>
<path d="m30.167 0.165c0 0.092-0.117 0.168-0.26 0.168s-0.217 0.071-0.163 0.157c0.053 0.086-1e-3 0.217-0.119 0.291-0.827 0.518-0.811 0.28-0.808 11.93l3e-3 10.861 0.382 0.294c0.21 0.161 0.314 0.295 0.232 0.297s0.049 0.188 0.292 0.412c0.242 0.225 0.441 0.489 0.441 0.586 0 0.383 23.463 0.218 23.584-0.165 0.058-0.181 0.194-0.329 0.303-0.329 0.679 0 0.694-0.246 0.737-12.056l0.042-11.307-0.577-0.511c-0.318-0.281-0.539-0.572-0.493-0.647 0.047-0.076-5.244-0.14-11.756-0.144-7.885-4e-3 -11.84 0.05-11.84 0.163m181.42 54.433c-0.129 0.129-0.315 0.235-0.413 0.235-0.099 0-0.179 0.113-0.179 0.25 0 0.184-0.19 0.25-0.713 0.25-1.382 0-1.29-0.992-1.244 13.348 0.038 11.812 0.06 12.694 0.329 12.891 0.159 0.116 0.235 0.265 0.168 0.332-0.066 0.067 0.01 0.194 0.17 0.283 0.159 0.09 0.29 0.347 0.29 0.571 0 0.289 0.092 0.409 0.313 0.409 0.172 0 0.406 0.112 0.52 0.25 0.114 0.137 0.279 0.25 0.366 0.25s0.271 0.112 0.408 0.25c0.138 0.137 0.395 0.25 0.572 0.25 0.176 0 0.321 0.075 0.321 0.166 0 0.092 0.333 0.167 0.74 0.167s0.787-0.075 0.843-0.167c0.057-0.091 0.403-0.166 0.77-0.166 0.403 0 0.626-0.066 0.563-0.167-0.056-0.092 0.089-0.24 0.324-0.33 0.235-0.089 0.427-0.239 0.427-0.333 0-0.093 0.112-0.17 0.25-0.17 0.137 0 0.25-0.117 0.25-0.26 0-0.15 0.079-0.211 0.186-0.145 0.134 0.083 0.168-0.218 0.121-1.053-0.071-1.263-0.356-1.847-0.744-1.526-0.124 0.103-0.332 0.147-0.462 0.097-0.129-0.05-0.282-0.043-0.34 0.014-0.155 0.155-0.638 0.208-0.97 0.106-0.274-0.084-0.291-0.84-0.294-12.786-1e-3 -7.51-0.066-12.797-0.157-12.942-0.215-0.339-2.092-0.397-2.415-0.074m73.168-1e-3c-0.099 0.099-0.385 0.232-0.637 0.295-0.251 0.063-0.456 0.188-0.456 0.278s-0.264 0.163-0.585 0.163h-0.586l6e-3 14.167 5e-3 14.167h2.41c2.945 0 2.623 0.89 2.554-7.06-0.042-4.903-9e-3 -6.288 0.154-6.35 0.115-0.044 0.214-0.251 0.221-0.46 8e-3 -0.209 0.053-0.283 0.101-0.164 0.051 0.128 0.224-0.061 0.42-0.458 0.184-0.371 0.439-0.675 0.567-0.675s0.233-0.113 0.233-0.25c0-0.141 0.149-0.25 0.343-0.25 0.189 0 0.297-0.075 0.24-0.167-0.057-0.091-5e-3 -0.172 0.115-0.179 0.576-0.032 1.049-0.182 1.163-0.367 0.198-0.321 3.472-0.349 3.472-0.029 0 0.133 0.148 0.242 0.329 0.242 0.19 0 0.431 0.194 0.569 0.458 0.132 0.252 0.397 0.569 0.588 0.704 0.297 0.209 0.347 0.418 0.347 1.44 0 0.909 0.06 1.219 0.25 1.292 0.216 0.082 0.25 0.926 0.25 6.184v6.089h2.261c1.244 0 2.403-0.076 2.576-0.169 0.438-0.234 0.519-12.89 0.083-13.057-0.183-0.07-0.253-0.346-0.253-0.999 0-0.598-0.084-0.971-0.25-1.109s-0.25-0.511-0.25-1.113c0-0.562-0.063-0.867-0.167-0.803-0.091 0.056-0.166-0.021-0.166-0.173 0-0.37-0.513-1.275-0.876-1.545-0.16-0.12-0.656-0.589-1.102-1.042-0.469-0.476-0.961-0.824-1.167-0.824-0.195 0-0.355-0.079-0.355-0.176s-0.075-0.13-0.167-0.074c-0.092 0.057-0.167 0.026-0.167-0.07 0-0.288-6.002-0.201-6.113 0.089-0.049 0.127-0.262 0.231-0.474 0.231-0.53 0-0.93 0.172-0.819 0.351 0.051 0.082-0.027 0.149-0.172 0.149-0.146 0-0.309 0.113-0.361 0.25-0.053 0.138-0.229 0.25-0.391 0.25-0.163 0-0.389 0.113-0.503 0.25-0.538 0.649-0.584 0.297-0.534-4.123 0.053-4.6 0.013-5.127-0.386-5.127-0.136 0-0.247-0.116-0.247-0.259 0-0.308-1.762-0.288-2.073 0.023m46.163-0.087c0.04 0.065-0.264 0.203-0.675 0.306-0.411 0.104-0.748 0.263-0.748 0.353s-0.3 0.164-0.667 0.164h-0.666v13.51c0 8.964 0.056 13.475 0.166 13.407 0.092-0.057 0.167-0.035 0.167 0.048 0 0.228 0.544 0.794 0.886 0.921 0.166 0.061 0.255 0.188 0.198 0.28s0.043 0.168 0.222 0.168 0.362 0.096 0.407 0.214c0.046 0.118 0.372 0.234 0.727 0.258 0.354 0.023 0.668 0.114 0.699 0.202 0.074 0.212 1.528 0.205 1.528-8e-3 0-0.091 0.15-0.166 0.333-0.166 0.185 0 0.333-0.111 0.333-0.25 0-0.181 0.186-0.25 0.667-0.25h0.667v-1.634c0-1.954-0.46-2.597-1.274-1.783-0.138 0.137-0.32 0.25-0.405 0.25-0.094 0-0.155-5.032-0.155-12.793v-12.793l-0.375-0.244c-0.373-0.243-2.174-0.384-2.035-0.16m-224.83 0.972c-0.05 0.082-0.074 6.438-0.051 14.125l0.04 13.976 6.963 0.044c6.085 0.038 6.975 0.012 7.06-0.209 0.068-0.177 0.338-0.251 0.914-0.251 0.45 0 0.948-0.071 1.107-0.157s0.483-0.197 0.719-0.246c0.237-0.049 0.627-0.271 0.867-0.494 0.277-0.257 0.465-0.335 0.515-0.212 0.055 0.134 0.083 0.13 0.092-0.016 7e-3 -0.115 0.155-0.209 0.329-0.209 0.173 0 0.359-0.112 0.411-0.25 0.053-0.137 0.251-0.25 0.44-0.25s0.387-0.112 0.44-0.25c0.052-0.137 0.2-0.25 0.328-0.25s0.232-0.112 0.232-0.25c0-0.137 0.121-0.25 0.268-0.25 0.304 0 1.058-0.658 1.062-0.926 2e-3 -0.098 0.237-0.416 0.523-0.709 0.286-0.292 0.455-0.536 0.375-0.542s0.024-0.078 0.23-0.161c0.223-0.09 0.375-0.294 0.375-0.502 0-0.192 0.113-0.463 0.25-0.6 0.138-0.138 0.25-0.437 0.25-0.665 0-0.234 0.073-0.369 0.167-0.311s0.167-0.076 0.167-0.306c0-0.225 0.112-0.452 0.25-0.505 0.184-0.07 0.25-0.363 0.25-1.119 0-0.841 0.044-1.006 0.25-0.927 0.217 0.084 0.25-0.369 0.25-3.477 0-3.107-0.033-3.56-0.25-3.477-0.201 0.077-0.251-0.063-0.253-0.713-2e-3 -0.977-0.149-1.589-0.35-1.465-0.081 0.051-0.148-0.157-0.15-0.46-2e-3 -0.417-0.042-0.491-0.164-0.301-0.132 0.203-0.166 0.18-0.185-0.125-0.039-0.624-0.057-0.684-0.273-0.9-0.115-0.115-0.209-0.292-0.209-0.394 0-0.101-0.318-0.544-0.708-0.983s-0.747-0.949-0.794-1.133c-0.046-0.184-0.42-0.514-0.83-0.733-0.41-0.22-0.68-0.399-0.599-0.399s-0.056-0.187-0.303-0.417c-0.247-0.229-0.596-0.416-0.774-0.416-0.179 0-0.325-0.113-0.325-0.25 0-0.167-0.167-0.25-0.5-0.25-0.356 0-0.5-0.081-0.5-0.278 0-0.153-0.047-0.231-0.104-0.174s-0.385-0.04-0.729-0.215-0.679-0.266-0.743-0.201c-0.065 0.064-0.221-0.024-0.347-0.196-0.166-0.228-0.485-0.327-1.179-0.367-0.523-0.03-1.029-0.133-1.124-0.229-0.219-0.218-13.545-0.243-13.68-0.025m28.469 0.093c-0.054 0.142-0.203 0.258-0.331 0.258s-0.232 0.135-0.232 0.3-0.089 0.39-0.198 0.499c-0.292 0.291-0.315 2.497-0.03 2.782 0.125 0.126 0.228 0.309 0.228 0.407 0 0.099 0.1 0.179 0.222 0.179 0.123 0 0.423 0.225 0.668 0.5 0.518 0.581 2.189 0.756 2.383 0.25 0.053-0.138 0.249-0.25 0.436-0.25 0.854 0 1.545-1.182 1.511-2.583-0.035-1.447-0.057-1.601-0.218-1.502-0.08 0.05-0.193-0.061-0.251-0.246-0.059-0.185-0.214-0.336-0.346-0.336-0.131 0-0.238-0.103-0.238-0.23 0-0.36-3.466-0.387-3.604-0.028m30.812 0.121c-0.305 0.188-0.542 0.474-0.542 0.653 0 0.175-0.075 0.318-0.166 0.318-0.281 0-0.21 2.59 0.078 2.829 0.134 0.111 0.238 0.252 0.23 0.312-0.041 0.309 0.051 0.5 0.284 0.589 0.167 0.064 0.217 0.032 0.141-0.091-0.131-0.212 0.064-0.116 0.804 0.396 0.522 0.362 1.86 0.372 2.155 0.017 0.1-0.121 0.266-0.221 0.37-0.225 0.321-9e-3 0.938-0.616 0.938-0.923 0-0.161 0.047-0.246 0.104-0.189 0.48 0.48 0.829-1.604 0.385-2.299-0.175-0.275-0.368-0.601-0.428-0.725-0.526-1.081-3.053-1.466-4.353-0.662m62.169 13.762 0.039 14.125h2.5 2.5l0.088-10.25 3.04-0.012c3.276-0.014 3.573-0.038 3.844-0.309 0.098-0.098 0.529-0.179 0.958-0.179 0.459 0 0.858-0.094 0.97-0.23 0.105-0.126 0.419-0.275 0.698-0.331 0.282-0.056 0.461-0.176 0.404-0.27-0.058-0.093 0.05-0.169 0.238-0.169 0.194 0 0.344-0.108 0.344-0.25 0-0.139 0.148-0.25 0.335-0.25 0.433 0 1.998-1.568 1.998-2.002 0-0.182 0.107-0.331 0.239-0.331 0.131 0 0.286-0.15 0.344-0.333 0.059-0.184 0.161-0.334 0.228-0.334 0.066 0 0.14-0.28 0.163-0.622 0.023-0.343 0.154-0.686 0.29-0.762 0.354-0.198 0.327-5.166-0.029-5.462-0.129-0.107-0.235-0.364-0.235-0.57 0-0.207-0.113-0.47-0.25-0.584-0.138-0.114-0.25-0.343-0.25-0.508 0-0.166-0.113-0.414-0.25-0.551-0.138-0.138-0.25-0.331-0.25-0.429s-0.107-0.178-0.237-0.178-0.286-0.226-0.347-0.502c-0.06-0.276-0.17-0.464-0.244-0.418-0.074 0.045-0.177-0.082-0.23-0.283-0.052-0.201-0.146-0.316-0.207-0.254-0.062 0.061-0.259 0.033-0.438-0.063s-0.28-0.219-0.225-0.274c0.09-0.091-0.796-0.572-1.12-0.608-0.072-8e-3 -0.197-0.122-0.277-0.252-0.081-0.13-0.414-0.243-0.742-0.25-0.327-7e-3 -0.631-0.107-0.675-0.221-0.063-0.162-1.552-0.209-6.667-0.209h-6.586l0.039 14.125m-48.593-12.052c-0.153 0.153-0.678 0.258-1.453 0.289-1.136 0.047-2.216 0.567-2.173 1.046 5e-3 0.051 8e-3 0.909 8e-3 1.907v1.814l-0.491 0.072c-0.27 0.04-0.603 0.01-0.739-0.066-0.138-0.077-0.289-0.071-0.342 0.014-0.052 0.084-0.236 0.116-0.408 0.071-0.687-0.179-1.299 3.083-0.725 3.864 0.274 0.373 0.917 0.583 1.786 0.583h0.919l0.024 6.042c0.013 3.323 0.013 6.239 1e-3 6.48-0.012 0.242 0.09 0.532 0.227 0.646 0.142 0.118 0.248 0.483 0.248 0.852 0 0.382 0.12 0.778 0.292 0.968 0.548 0.604 0.708 0.831 0.708 1.005 0 0.096 0.113 0.174 0.25 0.174 0.138 0 0.25 0.112 0.25 0.25 0 0.155 0.158 0.25 0.417 0.25 0.229 0 0.419 0.093 0.421 0.208 0.013 0.677 4.359 1.175 4.607 0.528 0.05-0.13 0.195-0.236 0.323-0.236s0.232-0.113 0.232-0.25c0-0.186 0.195-0.25 0.75-0.25 0.556 0 0.75-0.065 0.75-0.25 0-0.153 0.156-0.25 0.398-0.25 0.263 0 0.428-0.118 0.488-0.35 0.051-0.193 0.172-0.301 0.27-0.241 0.122 0.076 0.178-0.444 0.178-1.646 0-1.921-0.341-2.427-1.145-1.7-0.164 0.149-0.566 0.27-0.892 0.27-0.375 0-0.63 0.092-0.69 0.25-0.073 0.189-0.38 0.25-1.268 0.25h-1.172v-0.578c0-0.445-0.057-0.556-0.25-0.482-0.219 0.084-0.25-0.641-0.25-5.922v-6.018l2.042-1e-3c1.724 0 2.123-0.05 2.57-0.323l0.529-0.322-3e-3 -1.522c-3e-3 -1.094-0.065-1.545-0.221-1.605-0.12-0.046-0.252-0.216-0.294-0.378-0.07-0.266-0.286-0.288-2.255-0.236-2.578 0.069-2.347 0.311-2.377-2.486-0.029-2.649-0.601-3.66-1.54-2.721m93.876 4e-3c-0.163 0.163-0.675 0.257-1.552 0.285-1.878 0.061-1.841 7e-3 -1.952 2.833-0.052 1.314-0.109 2.314-0.125 2.222-0.017-0.092-0.591-0.178-1.275-0.192l-1.243-0.024-0.35 0.592c-0.288 0.488-0.344 0.832-0.316 1.942l0.034 1.349 0.589 0.291c0.373 0.185 0.975 0.292 1.643 0.292h1.053v6.98c0 6 0.035 7.008 0.25 7.187 0.138 0.114 0.25 0.317 0.25 0.452 0 0.329 0.868 1.54 1.108 1.544 0.104 2e-3 0.233 0.116 0.286 0.254 0.053 0.137 0.278 0.25 0.5 0.25s0.447 0.112 0.5 0.25c0.053 0.137 0.211 0.25 0.351 0.25s0.255 0.107 0.255 0.239c0 0.679 4.505 0.11 4.806-0.607 0.03-0.073 0.274-0.132 0.542-0.132 0.321 0 0.486-0.085 0.486-0.25 0-0.142 0.149-0.25 0.343-0.25 0.219 0 0.3-0.071 0.222-0.195-0.08-0.131-0.029-0.161 0.155-0.09 0.17 0.065 0.26 0.028 0.236-0.096-0.022-0.112 0.051-0.185 0.162-0.163 0.11 0.021 0.248-0.215 0.307-0.525 0.127-0.679 0.052-1.134-0.175-1.065-0.092 0.028-0.205-0.287-0.25-0.7l-0.084-0.75-1.125-0.049c-0.925-0.04-1.125-3e-3 -1.125 0.208 0 0.206-0.217 0.258-1.083 0.258-1.841 0-1.734 0.408-1.788-6.829l-0.045-6.171h2.033c1.685 0 2.059-0.045 2.182-0.265 0.081-0.146 0.216-0.239 0.3-0.208s0.167-0.752 0.185-1.756c0.019-0.996-0.012-1.765-0.069-1.707-0.058 0.057-0.244-0.023-0.416-0.178-0.25-0.227-0.666-0.284-2.124-0.292-2.205-0.013-1.99 0.242-2.018-2.395-0.024-2.315-0.352-3.394-0.817-2.699-0.144 0.215-0.168 0.209-0.17-0.042-4e-3 -0.355-0.344-0.379-0.676-0.048m-231.54 0.716c-8.847 0.038-10.125 0.075-10.125 0.292 0 0.163-0.166 0.249-0.483 0.249-0.276 0-0.523 0.107-0.578 0.251-0.053 0.139-0.155 0.242-0.226 0.23-1.039-0.17-1.065 0.126-1.06 12.011 3e-3 5.871 0.016 10.712 0.03 10.758 0.014 0.045 0.034 0.151 0.046 0.234 0.028 0.205 0.916 1.016 1.113 1.016 0.087 0 0.158 0.113 0.158 0.252 0 0.222 1.379 0.251 11.833 0.245 10.312-5e-3 11.833-0.038 11.833-0.252 0-0.135 0.113-0.245 0.25-0.245 0.138 0 0.25-0.081 0.25-0.179s0.113-0.291 0.25-0.428c0.366-0.366 0.378-22.166 0.013-22.86-0.349-0.664-0.867-1.033-1.449-1.033-0.354 0-0.49-0.068-0.433-0.216 0.05-0.132-0.057-0.227-0.274-0.243-0.196-0.015-0.507-0.049-0.69-0.076s-4.89-0.029-10.458-6e-3m196.21 1.537c0 0.09 0.206 0.215 0.458 0.277s0.621 0.218 0.82 0.347c0.199 0.128 0.462 0.216 0.584 0.194 0.327-0.06 1.471 0.548 1.471 0.782 0 0.111 0.113 0.245 0.25 0.297 0.172 0.066 0.25 0.334 0.25 0.851 0 0.561 0.065 0.756 0.25 0.756 0.188 0 0.25 0.201 0.25 0.813 0 0.519-0.09 0.887-0.25 1.02-0.15 0.125-0.25 0.49-0.25 0.919 0 0.479-0.081 0.743-0.25 0.808-0.137 0.053-0.25 0.215-0.25 0.361s-0.075 0.218-0.168 0.161c-0.092-0.057-0.212 0.014-0.267 0.157s-0.218 0.261-0.361 0.261-0.391 0.118-0.55 0.262c-0.334 0.302-0.483 0.312-4.112 0.269l-2.708-0.031v-4.334-4.333h2.416c1.469 0 2.417 0.064 2.417 0.163m-120.4 0.575c0.161 0.162 0.623 0.24 1.435 0.243 0.823 2e-3 1.236 0.073 1.322 0.226 0.068 0.123 0.409 0.242 0.756 0.266 0.347 0.023 0.671 0.103 0.719 0.177 0.049 0.074 0.37 0.266 0.714 0.428 0.343 0.161 0.625 0.397 0.625 0.524s0.112 0.231 0.25 0.231c0.137 0 0.25 0.113 0.25 0.25 0 0.138 0.075 0.25 0.166 0.25 0.238 0 0.782 0.576 0.902 0.954 0.056 0.177 0.244 0.473 0.417 0.658 0.173 0.186 0.353 0.629 0.401 0.984s0.168 0.672 0.267 0.705c0.28 0.094 0.244 6.529-0.039 6.954-0.12 0.181-0.229 0.506-0.241 0.722-0.012 0.217-0.139 0.523-0.281 0.68s-0.259 0.374-0.259 0.481c0 0.108-0.079 0.196-0.177 0.196-0.097 0-0.127 0.08-0.066 0.178 0.06 0.098-0.047 0.219-0.24 0.269s-0.35 0.195-0.35 0.322-0.113 0.231-0.25 0.231c-0.139 0-0.25 0.148-0.25 0.333 0 0.183-0.094 0.315-0.209 0.292-0.114-0.023-0.189 0.052-0.166 0.166 0.023 0.115-0.113 0.209-0.302 0.209s-0.297 0.075-0.24 0.166c0.057 0.092 0.042 0.173-0.032 0.18-0.489 0.046-0.785 0.16-0.9 0.345-0.073 0.118-0.305 0.221-0.517 0.23-0.424 0.018-1.324 0.403-1.491 0.638-0.058 0.083-0.184 0.102-0.28 0.043-0.095-0.059-0.221-0.032-0.278 0.062-0.25 0.403-7.081 0.209-7.237-0.206-0.08-0.213-0.077-0.399 8e-3 -0.431 0.085-0.033 0.146-3.801 0.141-8.798-6e-3 -5.578-0.067-8.706-0.17-8.642-0.231 0.142-0.199-0.316 0.039-0.554 0.311-0.311 5.247-0.277 5.563 0.038m-5.638 13.554c-0.026 2.36-0.047 0.429-0.047-4.292s0.021-6.652 0.047-4.292c0.026 2.361 0.026 6.223 0 8.584m201.67-11.824c-0.344 0.029-0.625 0.123-0.625 0.209s-0.403 0.156-0.896 0.156c-0.594 0-0.967 0.085-1.104 0.25-0.114 0.138-0.355 0.25-0.536 0.25-0.441 0-1.297 0.519-1.297 0.786 0 0.127-0.204 0.214-0.5 0.214-0.334 0-0.5 0.084-0.5 0.25 0 0.156-0.158 0.25-0.417 0.25-0.297 0-0.417 0.091-0.417 0.314 0 0.291-0.571 0.798-1.166 1.036-0.138 0.056-0.26 0.187-0.271 0.292-0.012 0.105-0.03 0.304-0.042 0.442-0.011 0.137-0.146 0.25-0.298 0.25-0.153 0-0.228 0.05-0.167 0.111 0.062 0.061-0.02 0.262-0.18 0.445-0.161 0.184-0.199 0.279-0.084 0.212s0.208-0.078 0.208-0.024c0 0.053-0.187 0.169-0.416 0.256-0.351 0.133-0.417 0.266-0.417 0.839 0 0.374-0.067 0.639-0.149 0.588-0.233-0.143-0.351 0.341-0.356 1.461-4e-3 0.639-0.098 1.151-0.25 1.352-0.351 0.464-0.347 2.76 5e-3 2.76 0.203 0 0.25 0.268 0.25 1.416s0.047 1.417 0.25 1.417c0.179 0 0.25 0.182 0.25 0.642 0 0.515 0.098 0.716 0.493 1.02 0.272 0.208 0.478 0.463 0.459 0.566-0.02 0.104 0.058 0.17 0.173 0.147 0.191-0.038 0.273 0.207 0.253 0.75-4e-3 0.115 0.097 0.208 0.224 0.208s0.231 0.113 0.231 0.25c0 0.138 0.113 0.25 0.25 0.25 0.138 0 0.25 0.113 0.25 0.25 0 0.138 0.109 0.25 0.242 0.25s0.318 0.132 0.412 0.292c0.093 0.16 0.172 0.235 0.175 0.167 2e-3 -0.069 0.149 6e-3 0.326 0.166 0.676 0.614 0.844 0.709 1.255 0.709 0.265 0 0.424 0.093 0.424 0.25 0 0.174 0.176 0.25 0.583 0.25 0.351 0 0.567 0.076 0.542 0.19-0.023 0.105 0.202 0.257 0.5 0.338 0.298 0.082 0.541 0.215 0.541 0.296 0 0.399 6.11 0.204 6.727-0.214 0.326-0.222 0.546-0.449 0.488-0.506-0.057-0.058 0.211-0.104 0.596-0.104 0.468 0 0.732-0.083 0.796-0.25 0.052-0.138 0.186-0.25 0.297-0.25 0.372 0 1.596-0.673 1.599-0.879 2e-3 -0.113 0.317-0.465 0.7-0.783 0.382-0.318 0.632-0.475 0.554-0.349-0.096 0.155-0.079 0.19 0.051 0.11 0.106-0.065 0.192-0.284 0.192-0.486 0-0.221 0.15-0.433 0.375-0.532 0.208-0.091 0.446-0.406 0.535-0.706 0.088-0.298 0.256-0.542 0.375-0.542 0.118 0 0.215-0.135 0.215-0.3s0.078-0.378 0.173-0.472c0.094-0.095 0.242-0.541 0.327-0.992 0.261-1.377 0.461-2.166 0.484-1.903 0.018 0.215 0.043 0.217 0.173 0.011 0.268-0.424 0.194-4.181-0.084-4.288-0.132-0.05-0.239-0.19-0.239-0.31s-0.071-0.243-0.158-0.274c-0.087-0.03-0.176-0.421-0.199-0.867-0.023-0.447-0.139-0.91-0.258-1.029s-0.238-0.354-0.264-0.522c-0.026-0.167-0.106-0.398-0.178-0.512-0.071-0.115-0.082-0.209-0.025-0.209 0.058 0-0.026-0.131-0.186-0.291-0.161-0.161-0.321-0.269-0.356-0.242-0.098 0.077-0.71-0.744-0.71-0.951 0-0.1-0.112-0.182-0.25-0.182-0.137 0-0.25-0.125-0.25-0.278s-0.046-0.232-0.102-0.175c-0.057 0.056-0.423-0.231-0.814-0.639-0.403-0.421-0.863-0.742-1.064-0.742-0.209 0-0.353-0.106-0.353-0.26 0-0.142-0.07-0.216-0.155-0.163-0.086 0.052-0.254-0.037-0.375-0.199s-0.404-0.315-0.628-0.34-0.524-0.144-0.666-0.264c-0.143-0.12-0.634-0.238-1.092-0.261-0.458-0.024-0.871-0.092-0.917-0.153-0.154-0.202-2.224-0.334-3.542-0.225m32.875 2e-3c-0.321 0.03-0.655 0.123-0.742 0.209-0.087 0.085-0.588 0.154-1.113 0.154-0.625 0-1.041 0.086-1.204 0.249-0.222 0.223-0.662 0.37-1.215 0.406-0.104 6e-3 -0.237 0.2-0.294 0.429-0.069 0.271-0.222 0.416-0.44 0.416-0.185 0-0.379 0.113-0.432 0.25-0.055 0.144-0.304 0.25-0.588 0.25-0.27 0-0.453 0.063-0.405 0.14 0.125 0.203-0.378 0.86-0.66 0.86-0.132 0-0.24 0.075-0.24 0.167s-0.113 0.167-0.25 0.167c-0.138 0-0.25 0.108-0.25 0.24 0 0.4-0.687 1.434-0.876 1.317-0.103-0.064-0.127-0.029-0.056 0.085 0.067 0.108 5e-3 0.237-0.14 0.293-0.143 0.055-0.218 0.167-0.168 0.249 0.051 0.082 0.013 0.149-0.084 0.149s-0.176 0.262-0.176 0.583c0 0.38-0.079 0.584-0.226 0.584-0.167 0-0.234 0.332-0.26 1.287-0.024 0.933-0.122 1.431-0.353 1.805-0.368 0.595-0.29 2.202 0.114 2.357 0.162 0.062 0.225 0.452 0.225 1.407 0 1.02 0.057 1.343 0.25 1.417 0.161 0.062 0.25 0.32 0.25 0.73 0 0.5 0.105 0.723 0.5 1.054 0.275 0.232 0.5 0.541 0.5 0.687s0.112 0.309 0.25 0.362c0.137 0.053 0.25 0.2 0.25 0.328s0.112 0.232 0.25 0.232c0.137 0 0.25 0.08 0.25 0.176 0 0.196 1 1.158 1.203 1.158 0.072 0 0.13 0.112 0.13 0.25 0 0.228 0.234 0.315 0.792 0.294 0.114-4e-3 0.208 0.092 0.208 0.213s0.206 0.244 0.458 0.273c0.258 0.03 0.44 0.144 0.417 0.261-0.026 0.13 0.147 0.209 0.458 0.209 0.275 0 0.5 0.067 0.5 0.148 0 0.082 0.197 0.198 0.437 0.258 0.24 0.061 0.546 0.219 0.679 0.352 0.361 0.361 6.13 0.354 6.491-8e-3 0.138-0.138 0.395-0.25 0.572-0.25s0.321-0.113 0.321-0.25c0-0.175 0.177-0.25 0.589-0.25 0.369 0 0.624-0.093 0.684-0.25 0.055-0.143 0.304-0.25 0.578-0.25 0.266 0 0.483-0.057 0.484-0.125 0-0.069 0.225-0.253 0.5-0.409 0.274-0.156 0.499-0.4 0.499-0.542s0.112-0.258 0.25-0.258c0.137 0 0.25-0.075 0.25-0.166 0-0.233 0.617-0.827 0.736-0.709 0.09 0.091 0.162-0.215 0.117-0.5-0.011-0.068 0.076-0.125 0.193-0.125 0.23 0 0.787-0.578 0.787-0.817 0-0.081 0.113-0.19 0.252-0.244 0.138-0.053 0.242-0.154 0.23-0.226-0.085-0.516 0.051-1.046 0.268-1.046 0.184 0 0.25-0.192 0.25-0.732 0-0.439 0.085-0.765 0.212-0.814 0.117-0.044 0.23-0.293 0.251-0.552s0.114-0.545 0.205-0.636c0.44-0.441 0.027-4.766-0.456-4.766-0.144 0-0.212-0.275-0.212-0.862 0-0.526-0.096-0.968-0.246-1.134-0.135-0.149-0.269-0.418-0.297-0.596-0.028-0.179-0.255-0.528-0.504-0.775-0.249-0.248-0.453-0.572-0.453-0.719s-0.075-0.221-0.167-0.164c-0.091 0.057-0.166 0.012-0.166-0.098 0-0.196-1.058-1.319-1.242-1.319-0.15 0-0.758-0.654-0.758-0.814 0-0.082-0.094-0.145-0.209-0.141-0.561 0.021-0.791-0.068-0.791-0.305 0-0.142-0.067-0.218-0.148-0.168s-0.239-0.018-0.35-0.152-0.452-0.291-0.758-0.348c-0.305-0.058-0.59-0.196-0.632-0.307-0.045-0.117-0.454-0.221-0.958-0.244-0.483-0.022-1.034-0.124-1.225-0.227-0.338-0.183-1.933-0.264-3.096-0.157m-208.08 0.18c-0.091 0.09-0.79 0.185-1.553 0.209-1.036 0.034-1.424 0.11-1.536 0.301-0.083 0.141-0.152 0.198-0.155 0.126s-0.154-0.051-0.336 0.046c-0.324 0.174-0.331 0.375-0.331 10.506v10.329h2.575 2.575l-0.072-21.584-0.5-0.049c-0.276-0.027-0.576 0.025-0.667 0.116m30.89 0.015c-0.031 0.09-0.712 0.178-1.514 0.196-0.802 0.017-1.459 0.101-1.459 0.186s-0.101 0.116-0.225 0.069c-0.76-0.292-0.775-0.088-0.775 10.807v10.252l5.024-0.092-6e-3 -10.559c-5e-3 -7.739-0.058-10.622-0.199-10.792-0.222-0.267-0.764-0.311-0.846-0.067m-20.909 0.41c-0.061 0.159-0.305 0.258-0.631 0.258-0.386 0-0.644 0.136-0.94 0.493-0.267 0.322-0.569 0.496-0.868 0.5-0.293 5e-3 -0.458 0.097-0.458 0.257 0 0.138-0.148 0.25-0.329 0.25-0.197 0-0.433 0.201-0.588 0.5-0.142 0.275-0.331 0.5-0.421 0.5-0.089 0-0.162 0.079-0.162 0.176 0 0.096-0.187 0.451-0.417 0.789-0.256 0.376-0.416 0.847-0.416 1.22 0 0.337-0.112 0.7-0.25 0.815-0.332 0.276-0.371 3.525-0.042 3.459 0.14-0.028 0.24 0.286 0.305 0.958 0.054 0.55 0.113 0.925 0.132 0.833 0.019-0.091 0.143 0.084 0.276 0.391 0.133 0.306 0.393 0.596 0.577 0.644s0.335 0.191 0.335 0.318 0.112 0.231 0.25 0.231c0.167 0 0.25 0.166 0.25 0.5 0 0.275-0.075 0.5-0.167 0.5-0.183 0-0.833 0.603-0.833 0.772 0 0.058-0.187 0.28-0.417 0.492-0.622 0.577-0.635 3.677-0.018 4.411 0.219 0.26 0.444 0.427 0.5 0.371s0.102 0.023 0.102 0.176 0.075 0.287 0.166 0.299c0.092 0.011 0.245 0.03 0.34 0.041 0.095 0.012 0.226 0.108 0.292 0.214 0.066 0.107 0.344 0.227 0.619 0.267 0.343 0.05 0.239 0.082-0.334 0.101-1.098 0.036-1.583 0.176-1.583 0.458 0 0.127-0.113 0.231-0.25 0.231-0.138 0-0.241 0.056-0.231 0.125 0.055 0.344-0.044 0.542-0.269 0.542-0.138 0-0.25 0.107-0.25 0.238 0 0.132-0.169 0.292-0.375 0.356-1.006 0.314-0.855 4.572 0.162 4.572 0.117 0 0.213 0.113 0.213 0.25 0 0.138 0.112 0.25 0.25 0.25 0.137 0 0.25 0.113 0.25 0.25 0 0.138 0.079 0.25 0.175 0.25 0.097 0 0.416 0.225 0.709 0.5 0.312 0.292 0.714 0.499 0.971 0.5 0.299 0 0.467 0.107 0.526 0.334 0.085 0.325 0.228 0.333 5.86 0.333 5.542 0 5.787-0.013 6.13-0.333 0.197-0.184 0.532-0.334 0.743-0.334 0.232 0 0.386-0.1 0.386-0.25 0-0.137 0.147-0.25 0.326-0.25 0.295 0 1.489-1.007 1.68-1.416 0.042-0.092 0.135-0.148 0.206-0.124s0.174-0.183 0.229-0.458c0.055-0.276 0.166-0.502 0.246-0.502s0.146-0.104 0.146-0.232 0.116-0.276 0.257-0.331c0.359-0.137 0.337-4.485-0.024-4.784-0.128-0.106-0.233-0.297-0.233-0.423s-0.075-0.23-0.167-0.23c-0.091 0-0.166-0.107-0.166-0.238 0-0.13-0.185-0.383-0.411-0.561s-0.358-0.377-0.292-0.442c0.066-0.066 0.044-0.102-0.047-0.079-0.266 0.064-0.75-0.198-0.75-0.406-1e-3 -0.105-0.191-0.201-0.424-0.215-0.232-0.013-0.604-0.219-0.825-0.458-0.317-0.342-0.559-0.434-1.142-0.434-0.504 0-0.771-0.08-0.836-0.25-0.081-0.211-0.646-0.25-3.664-0.25-2.969 0-3.603-0.042-3.776-0.25-0.121-0.146-0.485-0.25-0.874-0.25-0.574 0-0.638-0.035-0.459-0.25 0.119-0.144 0.482-0.25 0.853-0.25 0.464 0 0.647-0.071 0.647-0.25 0-0.218 4.034-0.43 4.91-0.258 0.088 0.017 0.244-0.083 0.346-0.223 0.103-0.14 0.457-0.273 0.788-0.295 0.33-0.022 0.563-0.101 0.518-0.175-0.046-0.074 0.053-0.185 0.219-0.246 0.166-0.062 0.343-0.172 0.393-0.245 0.049-0.073 0.262-0.159 0.472-0.191 0.209-0.032 0.431-0.136 0.492-0.232 0.062-0.095 0.28-0.226 0.486-0.29 0.206-0.065 0.422-0.303 0.479-0.531 0.057-0.227 0.142-0.375 0.189-0.328 0.197 0.198 0.708-0.278 0.708-0.659 0-0.26 0.094-0.41 0.26-0.41 0.142 0 0.216-0.071 0.163-0.157-0.054-0.086 0.018-0.221 0.16-0.3 0.141-0.079 0.288-0.31 0.327-0.513 0.04-0.203 0.175-0.473 0.302-0.6 0.359-0.358 0.398-4.298 0.046-4.59-0.142-0.118-0.258-0.32-0.258-0.449s-0.113-0.278-0.25-0.331c-0.721-0.277-0.207-0.548 1.125-0.595l1.375-0.049 0.052-1.762c0.07-2.328 0.201-2.233-3.12-2.255-1.43-9e-3 -4.456-0.069-6.726-0.133-3.642-0.102-4.139-0.086-4.226 0.142m46.144-0.124c-0.116 0.043-0.167 0.146-0.116 0.23 0.053 0.084-0.281 0.152-0.748 0.152-0.532 0-0.844 0.072-0.844 0.195 0 0.107-0.048 0.145-0.108 0.086-0.06-0.06-0.281 0.078-0.492 0.305-0.271 0.293-0.559 0.414-0.98 0.414-0.377 0-0.632 0.093-0.693 0.25-0.052 0.138-0.275 0.25-0.494 0.25h-0.399v2.334 2.333h0.793c0.679 0 0.853-0.072 1.207-0.5 0.254-0.308 0.573-0.502 0.831-0.505 0.23-3e-3 0.557-0.111 0.727-0.239 0.169-0.128 0.403-0.196 0.52-0.152 0.116 0.045 0.325-0.031 0.463-0.169s0.637-0.303 1.109-0.365c0.471-0.063 0.897-0.179 0.947-0.259 0.436-0.707 3.989 0.269 3.778 1.037-0.023 0.084 0.07 0.152 0.208 0.152 0.2 0 0.25 0.25 0.25 1.25v1.25h-1.153c-1.234 0-1.735 0.111-1.586 0.351 0.051 0.083-0.473 0.149-1.178 0.149-0.804 0-1.232 0.061-1.166 0.167 0.056 0.091 0.042 0.171-0.032 0.177-0.902 0.071-1.259 0.177-1.852 0.552-0.382 0.241-0.852 0.463-1.045 0.492-0.192 0.029-0.402 0.14-0.467 0.245-0.065 0.106-0.298 0.219-0.517 0.253-0.218 0.033-0.454 0.204-0.522 0.379-0.069 0.175-0.131 0.268-0.137 0.208-0.021-0.203-1.178 0.918-1.178 1.141 0 0.121-0.058 0.201-0.129 0.178-0.23-0.075-0.822 0.614-0.936 1.09-0.062 0.256-0.178 0.424-0.259 0.374-0.084-0.052-0.157 1.111-0.168 2.663-0.019 2.6-2e-3 2.761 0.309 2.876 0.181 0.067 0.319 0.159 0.305 0.205-0.048 0.166 0.607 0.814 0.741 0.732 0.075-0.047 0.137 1e-3 0.137 0.106 0 0.263 0.688 0.816 1.024 0.823 0.15 3e-3 0.317 0.118 0.369 0.256 0.053 0.137 0.179 0.25 0.28 0.25s0.287 0.103 0.412 0.228c0.317 0.317 3.336 0.375 3.711 0.072 0.2-0.162 0.236-0.164 0.142-9e-3 -0.068 0.115-0.088 0.209-0.043 0.209 0.044 0 0.18-0.094 0.301-0.209 0.354-0.334 1.446-0.791 1.893-0.791 0.254 0 0.411-0.096 0.411-0.25 0-0.175 0.176-0.25 0.588-0.25 0.369 0 0.625-0.093 0.684-0.249 0.053-0.137 0.163-0.208 0.245-0.157s0.149 0.015 0.149-0.079 0.095-0.135 0.21-0.091 0.284-0.085 0.375-0.286c0.239-0.531 0.553-0.561 0.677-0.067 0.059 0.236 0.175 0.429 0.256 0.429 0.082 0 0.149 0.112 0.149 0.25 0 0.137 0.112 0.25 0.25 0.25 0.137 0 0.25 0.125 0.25 0.277 0 0.153 0.044 0.234 0.098 0.181 0.135-0.136 1.069 0.207 1.069 0.391 0 0.083 0.187 0.151 0.416 0.151 0.23 0 0.417 0.075 0.417 0.166 0 0.215 1.454 0.22 1.528 6e-3 0.03-0.089 0.297-0.18 0.593-0.202 0.295-0.022 0.574-0.137 0.619-0.255 0.046-0.119 0.277-0.215 0.515-0.215 0.237 0 0.391-0.065 0.342-0.145-0.049-0.079 0.059-0.278 0.24-0.442 0.749-0.677 0.372-2.98-0.498-3.047-0.309-0.023-0.488 0.027-0.43 0.122 0.097 0.157-1.019 0.457-1.163 0.313-0.04-0.04-0.077-3.155-0.083-6.922-9e-3 -5.841-0.046-6.863-0.253-6.942-0.134-0.052-0.243-0.303-0.243-0.559 0-0.276-0.186-0.666-0.459-0.96-0.252-0.272-0.439-0.553-0.416-0.623 0.023-0.071-0.071-0.129-0.209-0.129-0.137 0-0.25-0.112-0.25-0.25 0-0.137-0.104-0.25-0.232-0.25s-0.275-0.112-0.328-0.25c-0.053-0.137-0.211-0.25-0.351-0.25s-0.255-0.117-0.255-0.26c0-0.142-0.062-0.221-0.137-0.175-0.076 0.047-0.333-0.017-0.572-0.141s-0.477-0.182-0.53-0.13c-0.052 0.052-0.095 0.014-0.095-0.085 0-0.179-6.325-0.264-6.792-0.091m59.126 0.071c0 0.09-0.069 0.122-0.153 0.07s-0.179-0.014-0.211 0.084c-0.033 0.097-0.38 0.182-0.772 0.187-0.554 8e-3 -0.818 0.116-1.192 0.49-0.321 0.321-0.65 0.48-0.993 0.48-0.345 0-0.513 0.082-0.513 0.25 0 0.224-0.351 0.318-1.109 0.298-0.338-9e-3 -0.308 4.764 0.03 4.894 0.148 0.056 0.353 0.018 0.457-0.086s0.399-0.189 0.656-0.189c0.303 0 0.466-0.087 0.466-0.25 0-0.156 0.158-0.25 0.417-0.25s0.417-0.094 0.417-0.25c0-0.165 0.165-0.25 0.486-0.25 0.267 0 0.511-0.071 0.541-0.158 0.031-0.087 0.315-0.203 0.633-0.258 0.317-0.056 0.654-0.165 0.75-0.244 0.095-0.079 0.455-0.196 0.8-0.261 0.345-0.064 0.668-0.183 0.718-0.265 0.13-0.21 2.696-0.185 2.827 0.028 0.06 0.097 0.192 0.148 0.293 0.114 0.481-0.16 1.125 0.819 1.175 1.787 0.026 0.522 0.118 1 0.204 1.061 0.75 0.54-0.134 0.816-2.379 0.742-0.111-4e-3 -0.186 0.078-0.167 0.182 0.023 0.122-0.375 0.206-1.127 0.239-0.639 0.027-1.208 0.125-1.265 0.217s-0.453 0.202-0.88 0.243c-0.764 0.075-1.507 0.501-1.341 0.769 0.072 0.117-0.576 0.22-0.977 0.157-0.068-0.011-0.125 0.093-0.125 0.23 0 0.167-0.166 0.25-0.5 0.25-0.333 0-0.5 0.084-0.5 0.25 0 0.138-0.112 0.25-0.25 0.25-0.137 0-0.231 0.092-0.208 0.205 0.023 0.112-0.127 0.23-0.334 0.261-0.206 0.032-0.454 0.204-0.55 0.384-0.096 0.179-0.246 0.282-0.333 0.228-0.087-0.053-0.158 0.095-0.158 0.329 0 0.268-0.093 0.427-0.25 0.427-0.141 0-0.25 0.149-0.25 0.343 0 0.189-0.076 0.296-0.168 0.239s-0.194-5e-3 -0.227 0.115c-0.032 0.121-0.185 0.601-0.339 1.068-0.353 1.067-0.349 3.713 6e-3 3.849 0.125 0.049 0.228 0.238 0.228 0.421s0.225 0.617 0.5 0.965c0.275 0.347 0.5 0.714 0.5 0.815 0 0.102 0.188 0.185 0.417 0.185 0.259 0 0.416 0.094 0.416 0.25 0 0.166 0.167 0.25 0.5 0.25 0.334 0 0.5 0.083 0.5 0.25 0 0.137 0.104 0.25 0.23 0.25s0.323 0.112 0.437 0.25c0.271 0.327 3.479 0.362 3.824 0.041 0.176-0.162 0.199-0.163 0.108-2e-3 -0.076 0.136-0.032 0.175 0.13 0.113 0.135-0.052 0.289-0.209 0.343-0.349 0.054-0.141 0.207-0.213 0.344-0.16 0.139 0.053 0.23 9e-3 0.207-0.1-0.023-0.114 0.269-0.24 0.702-0.302 0.408-0.058 0.77-0.193 0.806-0.299 0.035-0.106 0.245-0.192 0.467-0.192 0.232 0 0.402-0.098 0.402-0.232 0-0.127 0.094-0.228 0.209-0.224 0.537 0.02 0.802-0.059 0.708-0.211-0.057-0.092-0.035-0.167 0.048-0.167s0.331-0.157 0.551-0.349l0.401-0.349 0.052 0.516c0.032 0.313 0.147 0.516 0.292 0.516 0.132 0 0.239 0.074 0.239 0.164 0 0.326 0.582 0.836 0.954 0.836 0.226 0 0.38 0.101 0.38 0.25 0 0.174 0.176 0.25 0.583 0.25 0.321 0 0.583 0.075 0.583 0.166 0 0.436 2.167-0.02 2.51-0.527 0.051-0.076 0.292-0.154 0.537-0.174 0.558-0.047 0.931-2.947 0.432-3.365-0.22-0.185-1.137-0.234-1.102-0.058 0.022 0.11-0.129 0.225-0.335 0.257l-0.375 0.057v-6.183c0-5.343-0.034-6.197-0.25-6.28-0.182-0.07-0.25-0.356-0.25-1.057 0-0.652-0.081-1.029-0.25-1.17-0.138-0.114-0.25-0.272-0.25-0.352 0-0.324-1.263-1.648-1.573-1.648-0.123 0-0.27-0.181-0.325-0.402-0.078-0.311-0.249-0.427-0.755-0.512-0.36-0.061-0.693-0.211-0.74-0.334-0.106-0.275-6.94-0.338-6.94-0.063m111.67 0.062c0 0.174-0.176 0.249-0.582 0.249-0.429 0-0.707 0.131-1.059 0.5-0.263 0.275-0.548 0.5-0.634 0.5-0.219 0-1.725 1.386-1.725 1.587 0 0.092-0.187 0.369-0.416 0.616s-0.417 0.519-0.417 0.603-0.113 0.247-0.25 0.361c-0.169 0.14-0.25 0.516-0.25 1.155 0 0.576-0.096 1.075-0.245 1.271-0.331 0.439-0.335 1.721-5e-3 1.847 0.176 0.067 0.25 0.341 0.25 0.919 0 0.665 0.081 0.899 0.417 1.21 0.229 0.212 0.416 0.533 0.416 0.713s0.258 0.542 0.574 0.805c0.315 0.263 0.535 0.538 0.49 0.612-0.046 0.074 0.026 0.135 0.159 0.135s0.285 0.112 0.338 0.25c0.071 0.187-0.027 0.25-0.395 0.25-0.373 0-0.551 0.116-0.742 0.487-0.139 0.268-0.478 0.734-0.755 1.037-1.078 1.18-0.562 3.84 0.935 4.823 0.233 0.152 0.416 0.343 0.406 0.423-0.01 0.081 0.34 0.191 0.778 0.245 0.727 0.09 0.692 0.101-0.401 0.125-1.061 0.023-1.233 0.073-1.524 0.443-0.18 0.229-0.402 0.417-0.492 0.417-0.091 0-0.206 0.157-0.257 0.35-0.05 0.193-0.171 0.3-0.269 0.24-0.161-0.099-0.24 0.144-0.225 0.688 3e-3 0.107-0.079 0.165-0.182 0.128-0.103-0.036-0.319 0.219-0.479 0.568-0.317 0.69-0.294 2.553 0.033 2.662 0.096 0.032 0.175 0.188 0.175 0.347 0 0.389 1.688 2.183 2.053 2.183 0.16 0 0.334 0.113 0.387 0.25 0.052 0.138 0.261 0.25 0.463 0.25s0.528 0.15 0.725 0.334c0.344 0.319 0.588 0.333 6.03 0.333 5.492 0 5.679-0.011 5.881-0.333 0.126-0.202 0.388-0.334 0.666-0.334 0.292 0 0.632-0.181 0.937-0.5 0.262-0.275 0.563-0.5 0.668-0.5 0.104 0 0.19-0.112 0.19-0.25 0-0.137 0.113-0.25 0.25-0.25s0.25-0.085 0.25-0.189 0.188-0.363 0.417-0.575c0.229-0.213 0.416-0.433 0.416-0.49 0-0.056 0.113-0.215 0.25-0.353 0.202-0.201 0.25-0.768 0.25-2.911v-2.661l-0.75-0.729c-0.412-0.401-0.75-0.823-0.75-0.938s-0.045-0.164-0.101-0.108c-0.055 0.055-0.257-0.045-0.448-0.222-0.191-0.178-0.474-0.324-0.628-0.324-0.155 0-0.375-0.111-0.488-0.248-0.113-0.136-0.272-0.207-0.354-0.157-0.081 0.051-0.147-0.025-0.147-0.168 0-0.196-0.18-0.26-0.733-0.26-0.497 0-0.762-0.08-0.828-0.25-0.081-0.212-0.665-0.25-3.833-0.25s-3.752-0.038-3.833-0.25c-0.06-0.157-0.315-0.25-0.685-0.25-0.412 0-0.588-0.075-0.588-0.25 0-0.184 0.192-0.25 0.729-0.25 0.445 0 0.811-0.097 0.937-0.25 0.168-0.202 0.686-0.25 2.679-0.25 2.067 0 2.495-0.043 2.617-0.26 0.081-0.145 0.382-0.267 0.676-0.276 0.291-8e-3 0.614-0.116 0.716-0.239 0.103-0.124 0.29-0.225 0.416-0.225s0.23-0.075 0.23-0.167c0-0.091 0.107-0.166 0.238-0.166s0.337-0.098 0.458-0.218 0.362-0.271 0.536-0.337c0.173-0.066 0.28-0.155 0.238-0.198-0.043-0.042 0.358-0.547 0.891-1.121 0.669-0.721 0.969-1.179 0.97-1.484 1e-3 -0.242 0.115-0.483 0.252-0.536 0.208-0.08 0.25-0.545 0.25-2.75s-0.042-2.67-0.25-2.75c-0.726-0.279-0.231-0.606 0.917-0.606h1.166l-2e-3 -1.792c-4e-3 -2.43 0.201-2.275-3.03-2.306-1.494-0.014-4.574-0.073-6.843-0.13-3.595-0.09-4.125-0.072-4.125 0.145m31.75-0.083c-0.183 0.064-0.502 0.174-0.708 0.244s-0.375 0.26-0.375 0.423-0.113 0.34-0.25 0.392c-0.156 0.06-0.25 0.314-0.25 0.676 0 0.32-0.094 0.641-0.208 0.714-0.287 0.184-0.561 0.709-0.7 1.345-0.065 0.294-0.187 0.577-0.271 0.63-0.085 0.052-0.154 0.393-0.154 0.757 0 0.434-0.086 0.695-0.25 0.758-0.138 0.052-0.25 0.277-0.25 0.5 0 0.222-0.112 0.447-0.249 0.499-0.137 0.053-0.212 0.157-0.166 0.231 0.14 0.227-0.238 1.025-0.43 0.907-0.097-0.061-0.164-9e-3 -0.147 0.115 0.072 0.521-0.024 0.967-0.258 1.201-0.138 0.137-0.253 0.424-0.256 0.637s-0.113 0.529-0.244 0.703c-0.132 0.174-0.2 0.38-0.152 0.458s-0.029 0.142-0.172 0.142c-0.186 0-0.26 0.167-0.26 0.589 0 0.369-0.093 0.624-0.25 0.684-0.171 0.066-0.25 0.334-0.25 0.849 0 0.65-0.034 0.724-0.25 0.545-0.137-0.114-0.25-0.284-0.25-0.377s-0.111-0.253-0.248-0.355c-0.137-0.101-0.268-0.466-0.292-0.809-0.025-0.366-0.129-0.625-0.251-0.625-0.132-1e-3 -0.209-0.246-0.209-0.673 0-0.443-0.085-0.704-0.25-0.767-0.137-0.053-0.25-0.281-0.25-0.506 0-0.226-0.187-0.656-0.416-0.957-0.229-0.3-0.417-0.689-0.418-0.863-1e-3 -0.175-0.116-0.538-0.256-0.806-0.242-0.464-0.37-0.915-0.397-1.397-7e-3 -0.12-0.088-0.172-0.179-0.115-0.092 0.057-0.167-0.051-0.167-0.24 0-0.194-0.109-0.343-0.25-0.343-0.173 0-0.25-0.174-0.25-0.563 0-0.31-0.113-0.657-0.25-0.771-0.145-0.12-0.25-0.483-0.25-0.863 0-0.363-0.069-0.613-0.155-0.56-0.194 0.119-0.304-0.053-0.411-0.641-0.277-1.533-0.473-1.632-3.308-1.673-2.4-0.036-2.341-0.07-2.27 1.311 0.026 0.496 0.116 0.76 0.258 0.76 0.122 0 0.231 0.204 0.245 0.458 0.048 0.871 0.074 0.958 0.274 0.917 0.166-0.035 0.289 0.502 0.225 0.984-8e-3 0.06 0.096 0.2 0.231 0.312 0.134 0.111 0.244 0.306 0.244 0.432 0 0.127 0.113 0.23 0.25 0.23 0.181 0 0.25 0.186 0.25 0.672 0 0.43 0.086 0.705 0.24 0.764 0.132 0.05 0.2 0.195 0.151 0.322s0.066 0.448 0.256 0.713c0.189 0.266 0.301 0.526 0.249 0.578-0.119 0.118 0.448 1.154 0.729 1.334 0.115 0.074 0.209 0.311 0.209 0.528 0 0.543 0.17 0.94 0.355 0.826 0.084-0.052 0.142-0.033 0.129 0.042-0.111 0.638 0.04 1.368 0.266 1.281 0.168-0.064 0.25 8e-3 0.25 0.224 0 0.175 0.11 0.465 0.244 0.642 0.135 0.178 0.247 0.493 0.25 0.699s0.081 0.375 0.172 0.375c0.092 0 0.167 0.219 0.167 0.486 0 0.631 0.152 1.014 0.402 1.014 0.11 0 0.201 0.169 0.202 0.375 4e-3 0.489 0.466 1.496 0.656 1.428 0.081-0.029 0.205 0.284 0.275 0.696 0.071 0.413 0.204 0.775 0.297 0.806s0.168 0.611 0.168 1.302c0 0.685-0.066 1.205-0.148 1.155-0.162-0.101-0.346 0.441-0.35 1.03-1e-3 0.221-0.105 0.375-0.252 0.375-0.137 0-0.25 0.14-0.25 0.313 0 0.172-0.116 0.409-0.258 0.526-0.141 0.118-0.219 0.315-0.171 0.437 0.047 0.123-0.017 0.224-0.141 0.224-0.125 0-0.274 0.187-0.332 0.416-0.057 0.23-0.178 0.417-0.268 0.417s-0.163 0.112-0.163 0.25c0 0.237-0.183 0.318-0.606 0.267-0.105-0.013-0.237 0.101-0.296 0.253-0.095 0.248-0.133 0.25-0.393 0.019-0.191-0.169-0.587-0.249-1.164-0.235l-0.875 0.022v1.962 1.962h2.898c2.835 0 2.903-8e-3 3.147-0.381 0.138-0.21 0.633-0.754 1.1-1.209 0.468-0.455 0.851-0.961 0.853-1.126 1e-3 -0.165 0.19-0.474 0.419-0.686s0.419-0.528 0.423-0.7c3e-3 -0.173 0.113-0.502 0.244-0.731s0.241-0.578 0.244-0.774c3e-3 -0.197 0.118-0.401 0.256-0.453 0.143-0.055 0.25-0.304 0.25-0.581 0-0.267 0.112-0.578 0.25-0.692 0.137-0.114 0.25-0.311 0.25-0.437 0-0.127 0.083-0.23 0.184-0.23 0.102 0 0.141-0.113 0.089-0.25-0.053-0.138-0.04-0.25 0.03-0.25 0.069 0 0.137-0.151 0.151-0.335s0.142-0.452 0.285-0.595c0.144-0.143 0.261-0.431 0.261-0.64 0-0.41 0.424-1.364 0.677-1.52 0.086-0.053 0.156-0.317 0.156-0.587 0-0.324 0.084-0.49 0.25-0.49 0.18 0 0.25-0.184 0.25-0.658 0-0.397 0.095-0.711 0.238-0.792 0.13-0.073 0.262-0.433 0.291-0.8 0.035-0.423 0.13-0.651 0.263-0.625 0.114 0.023 0.208-0.062 0.208-0.19s0.113-0.276 0.25-0.328c0.157-0.061 0.25-0.316 0.25-0.69 0-0.327 0.094-0.63 0.208-0.674 0.115-0.044 0.22-0.271 0.233-0.504 0.014-0.234 0.147-0.56 0.296-0.724 0.149-0.165 0.228-0.411 0.176-0.547s0.021-0.344 0.163-0.461c0.141-0.118 0.257-0.392 0.257-0.61 0-0.242 0.098-0.397 0.25-0.397 0.165 0 0.25-0.164 0.25-0.479 0-0.264 0.097-0.56 0.214-0.657 0.118-0.098 0.232-0.426 0.254-0.729s0.15-0.635 0.286-0.736c0.135-0.102 0.246-0.3 0.246-0.441 0-0.14 0.113-0.299 0.25-0.351 0.138-0.053 0.25-0.272 0.25-0.486 0-0.215 0.11-0.536 0.245-0.714s0.249-0.473 0.254-0.657c5e-3 -0.183 0.155-0.52 0.335-0.75 0.267-0.341 0.326-0.684 0.329-1.898l4e-3 -1.481-1.248 0.113c-0.687 0.062-1.381 0.047-1.542-0.034s-0.443-0.095-0.627-0.032m-244.02 3.916c0.053 0.137 0.21 0.25 0.349 0.25 0.351 0 1.577 0.87 1.585 1.125 3e-3 0.114 0.118 0.208 0.256 0.208 0.207 0 0.25 0.316 0.25 1.845 0 1.418-0.058 1.903-0.25 2.095-0.138 0.138-0.25 0.395-0.25 0.572 0 0.233-0.116 0.321-0.422 0.321-0.232 0-0.465 0.113-0.518 0.25-0.052 0.138-0.191 0.25-0.307 0.25-0.117 0-0.306 0.113-0.42 0.25-0.114 0.138-0.423 0.25-0.687 0.25s-0.479 0.075-0.479 0.167-0.221 0.167-0.49 0.167c-0.27 0-0.537-0.075-0.594-0.167-0.056-0.092-0.277-0.167-0.489-0.167-0.213 0-0.48-0.112-0.594-0.25-0.114-0.137-0.34-0.25-0.503-0.25-0.162 0-0.338-0.112-0.391-0.25-0.052-0.137-0.229-0.251-0.392-0.253-0.197-2e-3 -0.439-0.312-0.714-0.913-0.229-0.501-0.473-0.912-0.542-0.914-0.373-0.01-0.105-1.7 0.375-2.363 0.275-0.379 0.5-0.773 0.5-0.873 0-0.284 1.108-1.1 1.491-1.1 0.194 0 0.343-0.109 0.343-0.25 0-0.203 0.266-0.25 1.399-0.25 1.089 0 1.42 0.055 1.494 0.25m217.05 0c0.138 0.137 0.376 0.252 0.53 0.255 0.317 6e-3 1.196 0.725 1.196 0.978 0 0.092 0.106 0.227 0.236 0.3 0.129 0.073 0.261 0.358 0.292 0.633 0.03 0.275 0.139 0.485 0.24 0.467 0.122-0.023 0.178 0.383 0.167 1.208-0.013 0.873-0.08 1.242-0.226 1.242-0.115 0-0.209 0.188-0.209 0.417 0 0.259-0.094 0.416-0.25 0.416-0.137 0-0.25 0.113-0.25 0.25 0 0.138-0.112 0.25-0.25 0.25-0.137 0-0.25 0.113-0.25 0.25 0 0.221-0.11 0.283-0.425 0.237-0.051-7e-3 -0.268 0.101-0.482 0.242-0.214 0.14-0.582 0.281-0.818 0.312-0.236 0.032-0.482 0.111-0.546 0.175-0.232 0.232-0.897 0.11-1.63-0.299-0.41-0.229-0.837-0.417-0.947-0.417-0.313 0-1.318-1.113-1.318-1.46 0-0.17-0.11-0.455-0.245-0.633-0.346-0.457-0.35-2.547-5e-3 -2.68 0.137-0.052 0.25-0.238 0.25-0.411 0-0.38 0.422-0.826 1.185-1.251 0.311-0.173 0.625-0.408 0.698-0.523 0.202-0.316 2.734-0.282 3.057 0.042m-52.94 0.416c0 0.092 0.15 0.167 0.333 0.167s0.333 0.077 0.333 0.171 0.188 0.242 0.417 0.329 0.417 0.217 0.417 0.288 0.192 0.14 0.427 0.153c0.53 0.031 0.563 0.064 0.609 0.614 0.02 0.245 0.133 0.445 0.25 0.445 0.118 0 0.214 0.132 0.214 0.293 0 0.162 0.181 0.489 0.402 0.728 0.294 0.317 0.413 0.654 0.442 1.248 0.021 0.448 0.14 0.98 0.264 1.183 0.304 0.498 0.295 1.826-0.013 1.998-0.27 0.151-0.262 0.118-0.262 1.143 0 0.42-0.069 0.718-0.153 0.665-0.085-0.052-0.242 0.173-0.349 0.499-0.108 0.326-0.339 0.682-0.514 0.791-0.174 0.11-0.317 0.293-0.317 0.409 0 0.115-0.067 0.21-0.148 0.21s-0.186 0.149-0.233 0.331c-0.048 0.182-0.275 0.403-0.504 0.49s-0.465 0.238-0.526 0.335c-0.06 0.097-0.265 0.177-0.456 0.177s-0.43 0.108-0.532 0.24c-0.313 0.408-4.435 0.417-4.435 0.01 0-0.138-0.056-0.241-0.125-0.23-0.569 0.09-1.208-0.053-1.208-0.27 0-0.138-0.113-0.25-0.25-0.25-0.138 0-0.25-0.117-0.25-0.26s-0.08-0.21-0.178-0.15c-0.098 0.061-0.219-0.046-0.269-0.238s-0.149-0.312-0.221-0.268c-0.071 0.044-0.177-0.107-0.234-0.335-0.057-0.229-0.178-0.416-0.268-0.416s-0.163-0.15-0.163-0.333-0.138-0.471-0.306-0.639-0.287-0.43-0.265-0.583c0.023-0.153-0.046-0.279-0.152-0.281-0.11-1e-3 -0.085-0.072 0.056-0.164 0.198-0.128 0.202-0.162 0.02-0.164-0.17-2e-3 -0.205-0.155-0.136-0.583 0.052-0.319 0.024-0.623-0.062-0.676-0.228-0.141-0.19-1.309 0.052-1.55 0.164-0.165 0.156-0.239-0.042-0.364-0.204-0.13-0.189-0.158 0.085-0.163 0.276-4e-3 0.29-0.032 0.083-0.166-0.148-0.096-0.169-0.163-0.053-0.164 0.111-2e-3 0.191-0.223 0.183-0.504-8e-3 -0.275 0.11-0.637 0.261-0.804 0.152-0.168 0.276-0.392 0.276-0.5 0-0.107 0.056-0.196 0.125-0.197 0.068 0 0.273-0.338 0.454-0.75 0.181-0.411 0.424-0.748 0.541-0.748s0.213-0.117 0.213-0.26 0.078-0.211 0.174-0.152 0.377-0.03 0.625-0.197 0.676-0.39 0.951-0.494c0.632-0.241 4.417-0.295 4.417-0.064m32.875 0.146c0.336 0.171 0.565 0.359 0.507 0.416-0.057 0.058 0.053 0.105 0.245 0.105s0.461 0.112 0.599 0.25c0.137 0.137 0.405 0.25 0.595 0.25 0.257 0 0.345 0.106 0.345 0.417 0 0.259 0.095 0.416 0.25 0.416 0.139 0 0.25 0.148 0.25 0.334 0 0.539 0.014 0.577 0.243 0.705 0.12 0.068 0.269 0.46 0.331 0.872 0.062 0.411 0.183 0.792 0.269 0.845 0.087 0.054 0.157 0.243 0.157 0.421s0.075 0.323 0.167 0.323c0.093 0 0.167 0.445 0.167 1 0 0.55-0.059 1-0.131 1-0.071 0-0.146 0.193-0.165 0.428-0.02 0.235-0.149 0.54-0.287 0.679-0.138 0.138-0.251 0.503-0.251 0.812s-0.086 0.615-0.192 0.681c-0.127 0.078-0.147 0.045-0.058-0.1 0.09-0.144 0.07-0.178-0.057-0.099-0.106 0.065-0.193 0.302-0.193 0.526s-0.077 0.407-0.17 0.407c-0.094 0-0.245 0.194-0.336 0.432-0.09 0.238-0.32 0.474-0.51 0.524-0.263 0.068-0.292 0.124-0.123 0.231 0.172 0.109 0.158 0.141-0.061 0.143-0.156 2e-3 -0.345 0.113-0.42 0.247-0.075 0.135-0.379 0.263-0.675 0.286-0.306 0.023-0.538 0.133-0.538 0.255 0 0.33-4.133 0.293-4.574-0.04-0.177-0.135-0.488-0.245-0.69-0.245s-0.41-0.113-0.463-0.25c-0.053-0.138-0.215-0.25-0.361-0.25s-0.219-0.075-0.162-0.167c0.057-0.091-0.016-0.166-0.162-0.166s-0.313-0.126-0.372-0.279c-0.145-0.378-0.665-0.883-0.785-0.763-0.054 0.053-0.098-0.148-0.098-0.448 0-0.339-0.158-0.733-0.416-1.041-0.331-0.393-0.42-0.69-0.433-1.44-0.037-2.167 0.043-3.783 0.191-3.835 0.087-0.03 0.158-0.162 0.158-0.292 0-0.129 0.113-0.236 0.25-0.236 0.157 0 0.25-0.158 0.25-0.422 0-0.232 0.113-0.465 0.25-0.517 0.138-0.053 0.25-0.238 0.25-0.412 0-0.323 0.548-0.982 0.816-0.982 0.082 0 0.196-0.123 0.254-0.274 0.058-0.15 0.151-0.228 0.207-0.172s0.289-0.046 0.518-0.226 0.552-0.328 0.718-0.328 0.347-0.075 0.404-0.167c0.197-0.318 3.608-0.203 4.292 0.146m-149.54 9.026c0 1.182-0.054 1.526-0.249 1.601-0.137 0.053-0.208 0.163-0.157 0.245s-6e-3 0.15-0.126 0.152c-0.12 1e-3 -0.472 0.226-0.782 0.5-0.311 0.273-0.667 0.497-0.792 0.497s-0.227 0.108-0.227 0.24c0 0.164-0.226 0.257-0.709 0.292-0.457 0.033-0.693 0.125-0.666 0.26 0.031 0.156-0.398 0.208-1.709 0.208h-1.75v-0.488c0-0.269-0.124-0.613-0.277-0.765-0.219-0.219-0.232-0.305-0.061-0.41 0.118-0.074 0.234-0.311 0.256-0.527s0.049-0.487 0.061-0.602c0.012-0.114 0.106-0.208 0.211-0.208 0.104 0 0.363-0.187 0.575-0.417 0.212-0.229 0.527-0.416 0.698-0.416 0.172 0 0.487-0.186 0.699-0.412 0.213-0.226 0.451-0.372 0.529-0.323 0.079 0.048 0.143 0.018 0.143-0.067s0.31-0.196 0.69-0.247 0.739-0.17 0.797-0.264 0.666-0.197 1.351-0.23c0.685-0.032 1.301-0.073 1.37-0.091s0.125 0.644 0.125 1.472m59.174-1.176c-0.111 0.069-0.177 0.547-0.162 1.185 0.034 1.468-0.184 2.207-0.574 1.944-0.034-0.023-0.276 0.202-0.537 0.5-0.322 0.367-0.624 0.542-0.938 0.542-0.3 0-0.463 0.088-0.463 0.25 0 0.167-0.167 0.25-0.5 0.25-0.311 0-0.484 0.079-0.458 0.208 0.081 0.405-3.128 0.373-3.536-0.035-0.44-0.44-0.503-2.173-0.079-2.173 0.142 0 0.213-0.076 0.156-0.168-0.13-0.21 0.233-0.584 0.716-0.738 0.202-0.064 0.368-0.186 0.368-0.272 0-0.085 0.15-0.155 0.333-0.155s0.333-0.079 0.333-0.176c0-0.096 0.225-0.253 0.5-0.349s0.5-0.242 0.5-0.325 0.291-0.15 0.647-0.15c0.362 0 0.734-0.107 0.847-0.243 0.131-0.157 0.594-0.26 1.312-0.292 1.249-0.055 1.823 0.019 1.535 0.197m-107.97 9.129c-0.023 0.115 0.015 0.194 0.084 0.176 0.169-0.045 1.899 0.253 2.125 0.366 0.189 0.095 0.458 0.126 1.25 0.146 0.62 0.015 0.833 0.085 0.833 0.271 0 0.155 0.157 0.25 0.417 0.25 0.242 0 0.416 0.095 0.416 0.229 0 0.127 0.113 0.323 0.25 0.437 0.138 0.114 0.25 0.474 0.25 0.799 0 0.324-0.051 0.539-0.114 0.476-0.062-0.062-0.209 0.113-0.325 0.389-0.187 0.446-0.593 0.635-0.989 0.461-0.052-0.023-0.169 0.09-0.258 0.25-0.13 0.231-0.388 0.292-1.244 0.292-0.806 0-1.104 0.063-1.176 0.25-0.12 0.314-2.66 0.368-2.763 0.059-0.037-0.112-0.574-0.218-1.302-0.256-0.862-0.045-1.28-0.139-1.375-0.309-0.075-0.134-0.283-0.244-0.462-0.244-0.832 0-1.493-1.642-0.809-2.009 0.175-0.093 0.317-0.317 0.317-0.497s0.113-0.327 0.25-0.327c0.186 0 0.25-0.195 0.25-0.755v-0.755l2.209 0.046c1.658 0.035 2.198 0.099 2.166 0.255m216.91 0c0.146 0.179 0.192 0.195 0.119 0.042-0.098-0.203-0.078-0.211 0.104-0.042 0.124 0.115 0.457 0.209 0.741 0.209s0.595 0.078 0.691 0.174c0.096 0.095 0.677 0.218 1.291 0.272 0.86 0.075 2.835 0.72 2.207 0.72-0.072 0 0.1 0.195 0.382 0.432 0.632 0.532 0.632 0.583 0.013 1.262-0.275 0.301-0.5 0.643-0.5 0.76s-0.153 0.213-0.339 0.213-0.382 0.112-0.434 0.25c-0.066 0.17-0.333 0.25-0.839 0.25-0.409 0-0.898 0.082-1.086 0.183-0.249 0.134-0.312 0.134-0.229 0 0.161-0.261-0.119-0.226-0.5 0.062-0.413 0.312-2.581 0.347-2.882 0.047-0.2-0.2-0.404-0.228-1.983-0.272-0.51-0.014-0.708-0.09-0.708-0.27 0-0.167-0.167-0.25-0.5-0.25-0.321 0-0.5-0.085-0.5-0.236 0-0.13-0.082-0.264-0.182-0.297-0.485-0.161-0.218-1.216 0.497-1.968 0.595-0.625 0.701-0.837 0.648-1.29l-0.063-0.542h1.906c1.614 0 1.944 0.044 2.146 0.291" fill="#1b9cd4"/>
<path d="m258.88 3.615c0.16 0.042 0.423 0.042 0.583 0 0.161-0.042 0.029-0.076-0.291-0.076-0.321 0-0.452 0.034-0.292 0.076m-101.66 59.008c0.531 0.034 1.356 0.033 1.834 0 0.478-0.034 0.044-0.061-0.965-0.061-1.008 1e-3 -1.399 0.028-0.869 0.061m24.494 0c0.436 0.034 1.148 0.034 1.584 0 0.435-0.035 0.079-0.063-0.792-0.063s-1.227 0.028-0.792 0.063m93.921-1e-3c0.392 0.035 0.992 0.035 1.334-1e-3 0.341-0.036 0.02-0.064-0.713-0.064-0.733 1e-3 -1.013 0.03-0.621 0.065m98.579 2e-3c0.619 0.032 1.632 0.032 2.25 0 0.619-0.032 0.113-0.059-1.125-0.059-1.237 0-1.743 0.027-1.125 0.059m7.752-6e-3c0.208 0.04 0.508 0.038 0.667-3e-3 0.159-0.042-0.01-0.075-0.377-0.073s-0.497 0.036-0.29 0.076m15.667 0c0.207 0.04 0.507 0.038 0.667-3e-3 0.159-0.042-0.011-0.075-0.377-0.073-0.367 2e-3 -0.497 0.036-0.29 0.076m-227.72 10.215c0 5.271 0.021 7.427 0.047 4.792s0.026-6.948 0-9.583c-0.026-2.636-0.047-0.479-0.047 4.791" fill="#60808c"/>
<path d="m258.88 3.615c0.16 0.042 0.423 0.042 0.583 0 0.161-0.042 0.029-0.076-0.291-0.076-0.321 0-0.452 0.034-0.292 0.076m-101.66 59.008c0.531 0.034 1.356 0.033 1.834 0 0.478-0.034 0.044-0.061-0.965-0.061-1.008 1e-3 -1.399 0.028-0.869 0.061m24.494 0c0.436 0.034 1.148 0.034 1.584 0 0.435-0.035 0.079-0.063-0.792-0.063s-1.227 0.028-0.792 0.063m93.921-1e-3c0.392 0.035 0.992 0.035 1.334-1e-3 0.341-0.036 0.02-0.064-0.713-0.064-0.733 1e-3 -1.013 0.03-0.621 0.065m98.579 2e-3c0.619 0.032 1.632 0.032 2.25 0 0.619-0.032 0.113-0.059-1.125-0.059-1.237 0-1.743 0.027-1.125 0.059m7.752-6e-3c0.208 0.04 0.508 0.038 0.667-3e-3 0.159-0.042-0.01-0.075-0.377-0.073s-0.497 0.036-0.29 0.076m15.667 0c0.207 0.04 0.507 0.038 0.667-3e-3 0.159-0.042-0.011-0.075-0.377-0.073-0.367 2e-3 -0.497 0.036-0.29 0.076m-227.72 10.215c0 5.271 0.021 7.427 0.047 4.792s0.026-6.948 0-9.583c-0.026-2.636-0.047-0.479-0.047 4.791" fill="#60808c"/>
<path d="m258.88 3.615c0.16 0.042 0.423 0.042 0.583 0 0.161-0.042 0.029-0.076-0.291-0.076-0.321 0-0.452 0.034-0.292 0.076m-101.66 59.008c0.531 0.034 1.356 0.033 1.834 0 0.478-0.034 0.044-0.061-0.965-0.061-1.008 1e-3 -1.399 0.028-0.869 0.061m24.494 0c0.436 0.034 1.148 0.034 1.584 0 0.435-0.035 0.079-0.063-0.792-0.063s-1.227 0.028-0.792 0.063m93.921-1e-3c0.392 0.035 0.992 0.035 1.334-1e-3 0.341-0.036 0.02-0.064-0.713-0.064-0.733 1e-3 -1.013 0.03-0.621 0.065m98.579 2e-3c0.619 0.032 1.632 0.032 2.25 0 0.619-0.032 0.113-0.059-1.125-0.059-1.237 0-1.743 0.027-1.125 0.059m7.752-6e-3c0.208 0.04 0.508 0.038 0.667-3e-3 0.159-0.042-0.01-0.075-0.377-0.073s-0.497 0.036-0.29 0.076m15.667 0c0.207 0.04 0.507 0.038 0.667-3e-3 0.159-0.042-0.011-0.075-0.377-0.073-0.367 2e-3 -0.497 0.036-0.29 0.076m-227.72 10.215c0 5.271 0.021 7.427 0.047 4.792s0.026-6.948 0-9.583c-0.026-2.636-0.047-0.479-0.047 4.791" fill="#60808c"/>
</g>
</svg>
